<?xml version="1.0" encoding="utf-8"?>
<!-- Generator: Adobe Illustrator 24.0.1, SVG Export Plug-In . SVG Version: 6.00 Build 0)  -->
<svg version="1.1" id="Camada_1" xmlns:serif="http://www.serif.com/"
	 xmlns="http://www.w3.org/2000/svg" xmlns:xlink="http://www.w3.org/1999/xlink" x="0px" y="0px" viewBox="0 0 32 32"
	 style="enable-background:new 0 0 32 32;" xml:space="preserve">
<style type="text/css">
	.st0{opacity:0.3;}
	.st1{fill-rule:evenodd;clip-rule:evenodd;}
</style>
<g transform="matrix(1,0,0,1,-32,-128)" class="st0">
	<g>
		<path class="st1" d="M56.8,132v-2c0-0.6-0.4-1-1-1c-0.5,0-1,0.4-1,1v1c0,0-3.4,0-4.4,0c-0.1,0-0.3,0.1-0.3,0.1
			c-0.1,0.1-0.1,0.2-0.1,0.4c0,0.3,0,0.5,0,0.5c0,0.6-0.4,1-1,1s-1-0.4-1-1v-2c0-0.6-0.4-1-1-1s-1,0.4-1,1v1c0,0-3.4,0-4.4,0
			c-0.1,0-0.3,0.1-0.3,0.1c-0.1,0.1-0.1,0.2-0.1,0.4c0,0.3,0,0.5,0,0.5c0,0.6-0.4,1-1,1c-0.5,0-1-0.4-1-1v-2c0-0.6-0.4-1-1-1
			c-0.5,0-1,0.4-1,1v1h-1.5c-0.6,0-1.3,0.3-1.7,0.7c-0.5,0.5-0.7,1.1-0.7,1.8v23c0,0.7,0.3,1.3,0.7,1.8c0.5,0.5,1.1,0.7,1.7,0.7
			c4.8,0,19.7,0,24.5,0c0.6,0,1.3-0.3,1.7-0.7c0.5-0.5,0.7-1.1,0.7-1.8v-23c0-0.7-0.3-1.3-0.7-1.8c-0.5-0.5-1.1-0.7-1.7-0.7
			c0,0-0.3,0-1,0c-0.1,0-0.3,0.1-0.3,0.1c-0.1,0.1-0.1,0.2-0.1,0.4c0,0.3,0,0.5,0,0.5c0,0.6-0.4,1-1,1C57.2,133,56.8,132.6,56.8,132
			z M60.7,139v17.5c0,0.1-0.1,0.3-0.1,0.4c-0.1,0.1-0.2,0.1-0.3,0.1H35.8c-0.1,0-0.3-0.1-0.3-0.1c-0.1-0.1-0.1-0.2-0.1-0.4V139H60.7
			z M50.9,150c0-0.6-0.4-1-1-1H46c-0.5,0-1,0.4-1,1v4c0,0.6,0.4,1,1,1H50c0.5,0,1-0.4,1-1V150z M58.8,150c0-0.6-0.4-1-1-1h-3.9
			c-0.5,0-1,0.4-1,1v4c0,0.6,0.4,1,1,1h3.9c0.5,0,1-0.4,1-1V150z M43.1,150c0-0.6-0.4-1-1-1h-3.9c-0.5,0-1,0.4-1,1v4
			c0,0.6,0.4,1,1,1h3.9c0.5,0,1-0.4,1-1V150z M50.9,142c0-0.6-0.4-1-1-1H46c-0.5,0-1,0.4-1,1v4c0,0.6,0.4,1,1,1H50c0.5,0,1-0.4,1-1
			V142z M58.8,142c0-0.6-0.4-1-1-1h-3.9c-0.5,0-1,0.4-1,1v4c0,0.6,0.4,1,1,1h3.9c0.5,0,1-0.4,1-1V142z M43.1,142c0-0.6-0.4-1-1-1
			h-3.9c-0.5,0-1,0.4-1,1v4c0,0.6,0.4,1,1,1h3.9c0.5,0,1-0.4,1-1V142z"/>
	</g>
</g>
</svg>
