<?xml version="1.0" encoding="utf-8"?>
<!-- Generator: Adobe Illustrator 24.0.1, SVG Export Plug-In . SVG Version: 6.00 Build 0)  -->
<svg version="1.1" id="ad9423e7-66ce-4b08-b1ae-b4bb4484fd7f"
	 xmlns="http://www.w3.org/2000/svg" xmlns:xlink="http://www.w3.org/1999/xlink" x="0px" y="0px" viewBox="0 0 560.2 560.2"
	 style="enable-background:new 0 0 560.2 560.2;" xml:space="preserve">
<style type="text/css">
	.st0{fill:#E6E6E6;}
	.st1{fill:#19A64B;}
	.st2{fill:#FBA70B;}
</style>
<path class="st0" d="M280.1-0.3c-92.9,0-168.5,75.6-168.5,168.5c0,23.8,5,47.3,14.8,69c26.4,58.6,85.4,99.5,153.7,99.5
	c93-0.1,168.4-75.5,168.5-168.5C448.6,75.3,373-0.3,280.1-0.3z M419.5,235.9c-26,53.4-80.1,87.2-139.4,87.3
	c-65.7,0-122-41.1-144.5-98.9c-7-17.9-10.6-36.9-10.5-56.1c0-85.5,69.5-155,155-155s155,69.5,155,155
	C435.1,191.7,429.8,214.8,419.5,235.9z"/>
<path class="st1" d="M280.1,337.2c-65.1-0.1-124.5-37.5-152.5-96.3c-1.1-2.3-0.9-5.1,0.5-7.2l0.1-0.1c2.3-3.3,6.7-4.1,10-1.8
	c1,0.7,1.9,1.7,2.4,2.8c25.6,53.6,80.3,88.2,139.5,88.2c55-0.1,105.9-29.4,133.6-77c1.3-2.2,3.7-3.6,6.3-3.6c2.6,0,4.9,1.4,6.2,3.6
	l0.1,0.1c1.3,2.2,1.3,5,0,7.2C395.8,305,340.2,337,280.1,337.2z"/>
<path class="st2" d="M242.1,183.6c10.9-0.1,19.8,8.7,19.9,19.6c0.1,10.9-8.7,19.8-19.6,19.9c-10.9,0.1-19.8-8.7-19.9-19.6
	c0-5.3,2-10.4,5.8-14.1C231.9,185.7,236.9,183.6,242.1,183.6 M242.1,175.2c-15.5,0-28.1,12.6-28.1,28.1c0,15.5,12.6,28.1,28.1,28.1
	c15.5,0,28.1-12.6,28.1-28.1l0,0C270.2,187.8,257.6,175.2,242.1,175.2L242.1,175.2z M300.6,135c5.3,0,9.6-4.2,9.6-9.5
	c0,0,0-0.1,0-0.1c0-5.2-4.2-9.5-9.4-9.6c0,0,0,0,0,0c-0.1,0-0.1,0-0.2,0c-5.3,0-9.6,4.2-9.7,9.5s4.2,9.6,9.5,9.7
	C300.5,135,300.6,135,300.6,135L300.6,135z M320.8,183.6c10.9-0.1,19.8,8.7,19.9,19.6s-8.7,19.8-19.6,19.9
	c-10.9,0.1-19.8-8.7-19.9-19.6c0-5.3,2-10.4,5.8-14.1C310.6,185.7,315.5,183.6,320.8,183.6 M320.8,175.2
	c-15.5,0-28.1,12.6-28.1,28.1c0,15.5,12.6,28.1,28.1,28.1c15.5,0,28.1-12.6,28.1-28.1l0,0C348.8,187.7,336.3,175.2,320.8,175.2
	L320.8,175.2z"/>
<path class="st2" d="M315.1,154.3h-14.4l-8.9-18.1c-2.6-4.5-8.3-6.1-12.8-3.6c-0.8,0.4-1.5,1-2.1,1.6L255.3,155
	c-1.8,1.8-2.8,4.2-2.8,6.7c0,5.2,3.8,7.1,5.6,8.2c13.7,7.9,18.5,8.8,18.5,12.7v19.8c0,2.7,2.2,4.8,4.8,4.8c2.7,0,4.8-2.2,4.8-4.8
	l0,0v-27.1c0-4-9.1-7.2-14.5-11.4l14.7-15.5c5.6,8.6,8.2,15.5,11.4,15.5h17.3c2.7,0,4.8-2.1,4.8-4.8
	C320,156.5,317.8,154.3,315.1,154.3L315.1,154.3L315.1,154.3z"/>
<path class="st2" d="M148.1,427.6c-4.1,0-7.6,12.1-8.2,27.9H60c-0.7-15.8-4.1-27.9-8.2-27.9c-4.6,0-8.4,15-8.4,33.5
	s3.7,33.5,8.4,33.5c4.1,0,7.6-12.1,8.2-27.9h79.8c0.7,15.8,4.1,27.9,8.2,27.9c4.6,0,8.4-15,8.4-33.5S152.7,427.6,148.1,427.6z"/>
<path class="st0" d="M186.9,411.6c-26.8-48.1-87.6-65.4-135.7-38.5C3.1,400-14.2,460.8,12.7,508.9s87.6,65.4,135.7,38.5
	c31.6-17.6,51.2-51,51.2-87.2C199.6,443.2,195.2,426.5,186.9,411.6z M99.8,552c-50.5-0.3-91.1-41.4-90.9-91.8s41.4-91.1,91.8-90.9
	c50.5,0.3,91.1,41.4,90.9,91.8c-0.3,50.1-40.8,90.6-90.9,90.9C100.4,552,100.1,552,99.8,552L99.8,552z"/>
<path class="st1" d="M99.8,560.5c-19,0-37.6-5.4-53.7-15.6c-0.8-0.5-1.4-1.3-1.8-2.1l-0.1-0.1c-0.7-1.8-0.2-3.9,1.3-5.1
	c1.5-1.2,3.6-1.4,5.2-0.3c42.5,27.1,98.9,14.5,126-28c17.8-28,19-63.4,3.2-92.6c-0.9-1.7-0.7-3.8,0.7-5.1c1.3-1.4,3.4-1.8,5.2-1
	l0.1,0.1c0.9,0.4,1.6,1.1,2,1.9c26.4,48.7,8.3,109.5-40.4,135.9C132.9,556.4,116.5,560.5,99.8,560.5L99.8,560.5z"/>
<path class="st0" d="M459.7,359.8c-55.1,0-99.8,44.6-99.9,99.7c0,55.1,44.6,99.8,99.7,99.9c0,0,0.1,0,0.1,0h0c0.6,0,1.3,0,1.9,0
	c55.1-1.1,98.9-46.6,97.9-101.7C558.4,403.4,514,359.8,459.7,359.8L459.7,359.8z M480,549.2c-49.5,11.2-98.6-19.8-109.9-69.2
	c-11.2-49.5,19.8-98.6,69.2-109.9c6.7-1.5,13.5-2.3,20.3-2.3h0.1c50.7,0,91.8,41.1,91.8,91.8C551.5,502.5,521.8,539.7,480,549.2z"/>
<path class="st1" d="M459.7,560c-55.4,0-100.3-44.9-100.3-100.3c0-47.2,32.9-88,79.1-98c0.6-0.1,1.2-0.1,1.8,0l0.2,0
	c2.4,0.5,4,2.8,3.5,5.2c-0.3,1.7-1.7,3.1-3.4,3.5c-49.3,10.6-80.7,59.1-70.2,108.4c9,42.1,46.2,72.2,89.3,72.2c0.9,0,1.7,0,2.6,0
	c2-0.1,3.8,1.3,4.2,3.2c0.5,1.9-0.5,3.9-2.3,4.6v0c-0.6,0.3-1.2,0.5-1.8,0.8c-0.5,0.2-1,0.3-1.6,0.4C460.5,560,460.1,560,459.7,560z
	"/>
<path class="st2" d="M508.9,455.4c-5.5-0.3-10.4,3.1-12.2,8.3h-9.8l-7.2-21.6c-0.5-1.7-2.1-2.8-3.8-2.8h-0.1c-1.8,0-3.3,1.2-3.8,2.9
	l-11.2,39.2l-13.2-79.4c-0.4-2.2-2.5-3.7-4.7-3.3c-1.6,0.3-2.9,1.4-3.3,3l-13.4,61.9h-15c-2.2,0-4,1.8-4,4s1.8,4,4,4h18.2
	c1.9,0,3.5-1.3,3.9-3.1l9.4-46l13,77.8c0.3,1.9,1.9,3.3,3.8,3.4h0.2c1.8,0,3.4-1.2,3.9-2.9l12.6-43.9l4,12c0.6,1.7,2.1,2.8,3.8,2.8
	h12.9c2.4,6.3,9.4,9.4,15.6,7.1c6.3-2.4,9.4-9.4,7.1-15.6C517.9,458.7,513.7,455.7,508.9,455.4L508.9,455.4z"/>
<path class="st1" d="M115.6,206.4c-14.4-63.5,8.9-129.7,59.9-170.1c2-1.6,4.8-2,7.2-1.1l0.1,0.1c3.7,1.5,5.5,5.6,4,9.3
	c-0.5,1.2-1.2,2.2-2.2,3c-46.5,36.8-68.1,97.9-54.9,155.6c12.4,53.6,52.3,96.7,104.8,113.1c2.5,0.8,4.3,2.8,4.9,5.3
	c0.6,2.5-0.2,5.1-2.1,6.8l-0.1,0.1c-1.9,1.7-4.6,2.3-7,1.6C172.7,312.1,129.1,265,115.6,206.4z"/>
<path class="st1" d="M330.4,330.1c-2.5,0.8-5.1,0.2-7-1.6l-0.1-0.1c-1.9-1.7-2.7-4.3-2.1-6.8c0.6-2.5,2.4-4.5,4.9-5.3
	c52.5-16.5,92.4-59.5,104.8-113.1c13.2-57.7-8.4-118.8-54.9-155.6c-1-0.8-1.7-1.8-2.2-3c-1.5-3.7,0.3-7.9,4-9.3l0.1-0.1
	c2.4-0.9,5.1-0.5,7.2,1.1c51.1,40.4,74.4,106.6,59.9,170.1C431.3,265,387.8,312.1,330.4,330.1z"/>
</svg>
