<?xml version="1.0" encoding="utf-8"?>
<!-- Generator: Adobe Illustrator 24.0.1, SVG Export Plug-In . SVG Version: 6.00 Build 0)  -->
<svg version="1.1" id="Camada_1" xmlns="http://www.w3.org/2000/svg" xmlns:xlink="http://www.w3.org/1999/xlink" x="0px" y="0px"
	 viewBox="0 0 100 100" style="enable-background:new 0 0 100 100;" xml:space="preserve">
<style type="text/css">
	.st0{opacity:0.5;}
	.st1{fill:#00CC33;}
</style>
<title>Home Address Location Destination</title>
<desc>Created with Sketch.</desc>
<g class="st0">
	<g transform="translate(-9148.000000, -3331.000000)">
		<path class="st1" d="M9168,3421.5c-12-9.3-19.3-25.3-20-40.5c0-27.6,22.4-50,50-50s50,22.4,50,50c-0.6,15.2-7.9,31.2-20,40.5
			 M9228,3421.5c-19.7,14.6-47.9,10.6-60.1,0 M9176.1,3383.5v15.4c0,6,5.4,11.1,11.7,11.1h3.1c1.7,0,14.1,0,15.8,0h2.4
			c6.2,0,11.3-5,11.3-11.1v-15.4h3.6c1.2,0,2.3-0.7,2.8-1.8c0.5-1.1,0.2-2.4-0.7-3.3l-23.8-23.6c-1.1-1.1-2.7-1.8-4.3-1.8
			c-1.6,0-3.1,0.6-4.3,1.8c-3.9,3.9-6.9,6.8-8.9,8.8c-0.1,0.1-0.5,0.5-0.6,0.6c-0.1,0.1-0.1-0.3-0.1-1.2c-0.1-2.1-1.9-3.7-4-3.7h0
			c-2.2,0-4,1.8-4,4v8.2c0,0.2,0,0.4,0.1,0.6l-6.3,6.2c-0.9,0.9-1.1,2.1-0.7,3.3c0.5,1.1,1.6,1.8,2.8,1.8H9176.1z M9194,3384h8
			c1.1,0,2,0.9,2,2v8c0,1.1-0.9,2-2,2h-8c-1.1,0-2-0.9-2-2v-8C9192,3384.9,9192.9,3384,9194,3384z"/>
	</g>
</g>
</svg>
