<?xml version="1.0" encoding="utf-8"?>
<!-- Generator: Adobe Illustrator 24.0.1, SVG Export Plug-In . SVG Version: 6.00 Build 0)  -->
<svg version="1.1" id="_x37_1f7c613-2b64-40c8-917c-08a5745b7a35"
	 xmlns="http://www.w3.org/2000/svg" xmlns:xlink="http://www.w3.org/1999/xlink" x="0px" y="0px" viewBox="0 0 82.5 82.5"
	 style="enable-background:new 0 0 82.5 82.5;" xml:space="preserve">
<style type="text/css">
	.st0{opacity:0.45;fill:#00CC33;enable-background:new    ;}
</style>
<title>emails</title>
<path class="st0" d="M76.1,31.8c0.4-0.3,0.9-0.2,1.2,0.1c0.1,0.1,0.2,0.3,0.2,0.5v28.8c0,3.7-3,6.8-6.8,6.8l0,0H12.2
	c-3.8,0-6.8-3-6.8-6.7l0,0V32.5c0-0.5,0.4-0.8,0.9-0.8c0.2,0,0.4,0.1,0.5,0.2c3.2,2.5,7.3,5.6,21.7,16c3,2.2,8,6.7,13,6.7
	s10.1-4.6,13-6.7C68.8,37.4,72.9,34.3,76.1,31.8z M41.4,50c3.3,0,8-4.1,10.3-5.8c18.7-13.6,20.1-14.7,24.5-18.1
	c0.8-0.6,1.3-1.6,1.3-2.7v-2.6C77.4,17,74.4,14,70.7,14H12.2c-3.8,0-6.8,3-6.8,6.8v2.7c0,1,0.5,2,1.3,2.7c4.3,3.4,5.7,4.5,24.4,18.1
	C33.4,46,38.1,50.1,41.4,50L41.4,50z"/>
</svg>
