<?xml version="1.0" encoding="utf-8"?>
<!-- Generator: Adobe Illustrator 24.0.1, SVG Export Plug-In . SVG Version: 6.00 Build 0)  -->
<svg version="1.1" id="Camada_1" xmlns="http://www.w3.org/2000/svg" xmlns:xlink="http://www.w3.org/1999/xlink" x="0px" y="0px"
	 viewBox="0 0 82.5 82.5" style="enable-background:new 0 0 82.5 82.5;" xml:space="preserve">
<style type="text/css">
	.st0{opacity:0.5;fill:#00CC33;stroke:#00CC33;stroke-width:2;stroke-miterlimit:10;enable-background:new    ;}
	
		.st1{opacity:0.5;fill:#00CC33;stroke:#00CC33;stroke-width:4;stroke-linecap:round;stroke-linejoin:round;stroke-miterlimit:10;enable-background:new    ;}
</style>
<g id="a5c16198-98a1-478b-8909-43624583dcf2">
	<path class="st0" d="M41.7,2c-9.4,0-16.2,7.2-16.2,17.1v13.7h3.7v-3.4v-10c0-0.2,0-0.3,0-0.5C30,11,34.4,5.8,41.7,5.4
		C49.1,5,53.6,11.3,54.3,19c0,0.1,0,0.2,0,0.2v10.2c0,0,0,3,0,3.4h3.6V19.1C57.9,9.2,51.1,2,41.7,2z"/>
</g>
<g id="Camada_2_1_">
	<path class="st1" d="M65.4,78H18.1c-2.3,0-4.1-1.8-4.1-4.1V40c0-2.3,1.8-4.1,4.1-4.1h47.2c2.3,0,4.1,1.8,4.1,4.1v34
		C69.4,76.2,67.6,78,65.4,78z"/>
</g>
</svg>
