<?xml version="1.0" encoding="utf-8"?>
<!-- Generator: Adobe Illustrator 24.0.1, SVG Export Plug-In . SVG Version: 6.00 Build 0)  -->
<svg version="1.1" xmlns="http://www.w3.org/2000/svg" xmlns:xlink="http://www.w3.org/1999/xlink" x="0px" y="0px"
	 viewBox="0 0 500 400" style="enable-background:new 0 0 500 400;" xml:space="preserve">
<style type="text/css">
	.st0{display:none;}
	.st1{display:inline;}
	.st2{display:inline;fill:none;}
	.st3{opacity:0.6;fill:#00CC33;}
</style>
<g id="Camada_1" class="st0">
	<path class="st1" d="M246.9,197.5h6.2c0.4,0,0.7,0.2,1,0.4c0.3,0.3,0.4,0.6,0.4,1v1.3c0,0.4-0.2,0.7-0.4,1c-0.3,0.3-0.6,0.4-1,0.4
		h-6.2c-0.4,0-0.7-0.2-1-0.4c-0.3-0.3-0.4-0.6-0.4-1v-1.3c0-0.4,0.2-0.7,0.4-1C246.2,197.6,246.5,197.5,246.9,197.5z M253.1,198
		h-6.2c-0.2,0-0.5,0.1-0.6,0.3s-0.3,0.4-0.3,0.6v1.3c0,0.2,0.1,0.5,0.3,0.6c0.2,0.2,0.4,0.3,0.6,0.3h6.2c0.2,0,0.5-0.1,0.6-0.3
		c0.2-0.2,0.3-0.4,0.3-0.6v-1.3c0-0.2-0.1-0.5-0.3-0.6S253.3,198,253.1,198z"/>
	<rect x="245.8" y="194.8" class="st2" width="8.3" height="8.3"/>
	<g id="Camada_2" class="st1">
	</g>
	<g id="Camada_3" class="st1">
	</g>
	<g id="Camada_4" class="st1">
	</g>
</g>
<g id="Camada_5">
	<path class="st3" d="M271.9,158.3h-17.9c-1.6,0-2.9,1.3-2.9,2.9v32.1c0,1.6,1.3,2.9,2.9,2.9h17.9c7.2,0,12.6-1.7,16.1-5
		c3.5-3.3,5.2-8,5.2-14C293.2,164.7,286.1,158.3,271.9,158.3z M271.9,158.3h-17.9c-1.6,0-2.9,1.3-2.9,2.9v32.1
		c0,1.6,1.3,2.9,2.9,2.9h17.9c7.2,0,12.6-1.7,16.1-5c3.5-3.3,5.2-8,5.2-14C293.2,164.7,286.1,158.3,271.9,158.3z M432.5,32.6H67.5
		c-27.4,0-49.9,22.4-49.9,49.9v235c0,27.4,22.4,49.9,49.9,49.9h364.9c27.4,0,49.9-22.4,49.9-49.9v-235
		C482.3,55.1,459.9,32.6,432.5,32.6z M200.3,228.7c-4.5,12.2-11.9,21.8-22.2,28.8c-11,7.5-23.8,11.2-38.6,11.2
		c-12.5,0-23.8-2.9-33.9-8.6c-10.1-5.7-18-13.6-23.8-23.8c-5.8-10.1-8.7-21.6-8.7-34.5s2.9-24.4,8.7-34.6
		c5.8-10.2,13.8-18.1,23.8-23.8c10.1-5.7,21.4-8.5,33.9-8.5c14.6,0,27.5,3.8,38.5,11.3c10.3,7.1,17.7,16.6,22.2,28.7
		c0.4,1.2-0.4,2.4-1.7,2.4H172c-0.7,0-1.3-0.4-1.6-1c-3-5.8-7-10.1-12.2-13.1c-5.4-3.1-11.7-4.7-18.9-4.7c-7.6,0-14.4,1.8-20.4,5.4
		c-6,3.6-10.6,8.6-13.9,15.1c-3.3,6.5-5,14.1-5,22.9c0,8.6,1.7,16.2,5,22.8c3.3,6.6,7.9,11.6,13.9,15.2c5.9,3.6,12.7,5.3,20.4,5.3
		c7.1,0,13.4-1.6,18.9-4.8c5.2-3,9.2-7.4,12.2-13.2c0.3-0.6,0.9-1,1.6-1h26.6C199.9,226.3,200.8,227.6,200.3,228.7z M314.9,197
		c-3.3,6.1-8.4,11-15.5,14.7c-7,3.7-15.8,5.6-26.5,5.6h-18.9c-1.6,0-2.9,1.3-2.9,2.9v44.1c0,1.6-1.3,2.9-2.9,2.9h-20.1
		c-1.6,0-2.9-1.3-2.9-2.9V140.2c0-1.6,1.3-2.9,2.9-2.9h44.9c10,0,18.6,1.7,25.7,5.2c7.1,3.5,12.4,8.3,15.9,14.3
		c3.5,6.1,5.3,13,5.3,20.7C319.8,184.4,318.2,191,314.9,197z M422.1,156.9c0,0.8-0.7,1.5-1.5,1.5h-50.1c-0.8,0-1.5,0.6-1.5,1.4v30.1
		c0,0.8,0.7,1.5,1.5,1.5h38.1c0.8,0,1.5,0.6,1.5,1.4v18.1c0,0.8-0.7,1.5-1.5,1.5h-38.1c-0.8,0-1.5,0.7-1.5,1.5v52.1
		c0,0.8-0.7,1.5-1.5,1.5h-24.1c-0.8,0-1.5-0.7-1.5-1.5V138.8c0-0.8,0.7-1.4,1.5-1.4h77.1c0.8,0,1.5,0.6,1.5,1.4V156.9z M271.9,158.3
		h-17.9c-1.6,0-2.9,1.3-2.9,2.9v32.1c0,1.6,1.3,2.9,2.9,2.9h17.9c7.2,0,12.6-1.7,16.1-5c3.5-3.3,5.2-8,5.2-14
		C293.2,164.7,286.1,158.3,271.9,158.3z"/>
	<path class="st3" d="M377.3,32.6H122.8C159.3,12,203,0,250,0S340.7,12,377.3,32.6z"/>
	<path class="st3" d="M377.2,367.4C340.7,388,297,400,250,400s-90.7-12-127.2-32.6H377.2z"/>
</g>
<g id="Camada_6" class="st0">
</g>
</svg>
