<?xml version="1.0" encoding="utf-8"?>
<!-- Generator: Adobe Illustrator 24.0.1, SVG Export Plug-In . SVG Version: 6.00 Build 0)  -->
<svg version="1.1" id="_x35_84f961d-d45b-47a7-ba72-848a3d54a187"
	 xmlns="http://www.w3.org/2000/svg" xmlns:xlink="http://www.w3.org/1999/xlink" x="0px" y="0px" viewBox="0 0 847.7 847.7"
	 style="enable-background:new 0 0 847.7 847.7;" xml:space="preserve">
<style type="text/css">
	.st0{fill:#F4F4F4;}
	.st1{fill:url(#SVGID_1_);}
	.st2{fill:#19A64B;}
	.st3{fill:#F0E4E4;}
	.st4{fill:url(#SVGID_2_);}
	.st5{fill:url(#SVGID_3_);}
	.st6{fill:none;stroke:#333333;stroke-width:3;stroke-miterlimit:10;}
	.st7{opacity:0.2;enable-background:new    ;}
	.st8{opacity:0.7;}
	.st9{fill:url(#SVGID_4_);}
	.st10{fill:url(#SVGID_5_);}
	.st11{fill:#333333;}
	.st12{fill:#FDB797;}
	.st13{fill:#3AD29F;}
	.st14{opacity:0.1;}
	.st15{fill:#535461;}
	.st16{fill:#FDA57D;}
	.st17{opacity:0.1;enable-background:new    ;}
	.st18{fill:#E0E0E0;}
	.st19{fill:#4D8AF0;}
	.st20{fill:#252A62;}
	.st21{fill:#3A68B4;}
	.st22{fill:#3E3F49;}
	.st23{fill:#FFFFFF;}
	.st24{fill:#72351C;}
	.st25{fill:#F55F44;}
</style>
<title>together</title>
<path class="st0" d="M408.3,121.7c-3.4,0-7.1,0-9.7,0.2c-1.1,0.1-2.3,0.3-3.4,0.7l-17.4,6.3c14,0.4,28.6,0.2,43,0.1l80.6-0.6
	c8.2-0.1,16.8-0.1,23.7-0.6c4.6-0.3,8-0.8,12.2-1.2c15.3-1.4,37.5-1.1,57.3-1s43.8-0.4,50.8-2.4h-42.6c-4.6,0-9.4,0-13.5-0.2
	c-4.7-0.3-7.6-0.8-11.8-1.2c-6.9-0.6-16.4-0.7-25.3-0.7C503.7,120.8,455.7,121.9,408.3,121.7z"/>
<linearGradient id="SVGID_1_" gradientUnits="userSpaceOnUse" x1="577.8922" y1="232.42" x2="577.8922" y2="383.035" gradientTransform="matrix(1 0 0 -1 -176.17 794.82)">
	<stop  offset="0" style="stop-color:#808080;stop-opacity:0.25"/>
	<stop  offset="0.54" style="stop-color:#808080;stop-opacity:0.12"/>
	<stop  offset="1" style="stop-color:#808080;stop-opacity:0.1"/>
</linearGradient>
<path class="st1" d="M47.8,562.4c0,0,35.9-163,142.5-120s251.2,20.5,266.6,11.3s205.1-88.2,261.5-2s31.8,110.8,31.8,110.8
	L47.8,562.4z"/>
<path class="st2" d="M56.7,560.5c0,0,35-159,139-117s245,20,260,11s200-86,255-2s31,108,31,108H56.7z"/>
<path class="st3" d="M133.7,570.5c0,0,41-133.6,75-90.4s152,23.6,174,21.6s304,68.8,304,68.8L133.7,570.5z"/>
<linearGradient id="SVGID_2_" gradientUnits="userSpaceOnUse" x1="906.0077" y1="409.8313" x2="906.0077" y2="763.7828" gradientTransform="matrix(1 0 0 -1 -176.17 794.82)">
	<stop  offset="0" style="stop-color:#808080;stop-opacity:0.25"/>
	<stop  offset="0.54" style="stop-color:#808080;stop-opacity:0.12"/>
	<stop  offset="1" style="stop-color:#808080;stop-opacity:0.1"/>
</linearGradient>
<path class="st4" d="M842.1,236.6c8.3-21,7.3-44.5-2.7-64.8c-7.4-14.8-19.3-27-25.8-42.2c-3.8-8.8-5.6-18.3-8.6-27.4
	c-9.6-28.3-30.6-51.3-57.8-63.5c-13.3-5.9-28-9-42.4-7c-23.3,3.2-42.8,19.2-58.3,36.8c-22.6,25.6-40.3,59.8-32.6,93
	c5.2,22.4,21.3,41.2,26.7,63.6c7,29-4.8,59.5-1,89.1c3.5,27.4,21.4,51.8,45.6,64.7c27.6,14.8,66-0.7,93.6-10.4
	c11.8-4.1,24.3-9.7,30.4-20.7c8-14.5,1.8-32.6,3.8-49.1C815.6,275.9,833.5,258,842.1,236.6z"/>
<linearGradient id="SVGID_3_" gradientUnits="userSpaceOnUse" x1="293.9927" y1="413.9214" x2="293.9927" y2="767.8728" gradientTransform="matrix(1 0 0 -1 -176.17 794.82)">
	<stop  offset="0" style="stop-color:#808080;stop-opacity:0.25"/>
	<stop  offset="0.54" style="stop-color:#808080;stop-opacity:0.12"/>
	<stop  offset="1" style="stop-color:#808080;stop-opacity:0.1"/>
</linearGradient>
<path class="st5" d="M201.6,125.5c-3.8-8.8-5.6-18.3-8.6-27.4c-9.6-28.3-30.6-51.3-57.8-63.5c-13.3-5.9-28-9-42.4-7
	C69.5,30.8,50,46.7,34.4,64.4C11.8,90-5.9,124.1,1.8,157.4c5.2,22.4,21.3,41.2,26.7,63.6c7,29-4.8,59.5-1.1,89.1
	c3.5,27.4,21.4,51.8,45.6,64.7c27.6,14.8,66-0.7,93.6-10.4c11.8-4.1,24.3-9.7,30.4-20.7c8-14.5,1.9-32.6,3.8-49.1
	c2.7-22.9,20.6-40.8,29.2-62.2c8.3-21,7.3-44.5-2.7-64.8C220,152.9,208.1,140.7,201.6,125.5z"/>
<path class="st2" d="M635,311.9c-3.7-29,7.9-58.9,1-87.2c-5.3-21.9-21-40.2-26.2-62.2c-7.6-32.6,9.8-66,31.9-91
	c15.2-17.2,34.3-32.9,57.1-36c14.1-2,28.5,1.1,41.5,6.8c26.7,12,47.2,34.5,56.6,62.2c3,8.9,4.7,18.2,8.4,26.8
	c6.3,14.9,18,26.9,25.3,41.3c9.8,19.8,10.7,42.8,2.6,63.4c-8.4,20.9-26,38.5-28.6,60.9c-1.9,16.1,4.2,33.8-3.7,48.1
	c-5.9,10.7-18.2,16.2-29.8,20.2c-26.9,9.4-64.6,24.6-91.6,10.2C655.9,362.6,638.4,338.7,635,311.9z"/>
<path class="st6" d="M710.5,332.5c0,0,39.7-16,44.7-25s12-62,12-62"/>
<line class="st6" x1="710.2" y1="577.5" x2="710.2" y2="232.5"/>
<path class="st2" d="M35.9,307.9c-3.7-29,7.9-58.9,1-87.2c-5.3-21.9-21-40.2-26.2-62.2c-7.6-32.6,9.8-66,31.9-91
	c15.2-17.2,34.3-32.9,57.1-36c14.1-2,28.5,1.1,41.5,6.8c26.7,12,47.2,34.5,56.6,62.2c3,8.9,4.7,18.2,8.4,26.8
	c6.4,14.9,18,26.9,25.3,41.3c9.8,19.8,10.7,42.8,2.6,63.4c-8.4,20.9-26,38.5-28.6,60.9c-1.9,16.1,4.2,33.8-3.7,48.1
	c-5.9,10.7-18.2,16.2-29.8,20.2c-26.9,9.4-64.6,24.6-91.6,10.2C56.9,358.6,39.4,334.7,35.9,307.9z"/>
<path class="st7" d="M35.9,307.9c-3.7-29,7.9-58.9,1-87.2c-5.3-21.9-21-40.2-26.2-62.2c-7.6-32.6,9.8-66,31.9-91
	c15.2-17.2,34.3-32.9,57.1-36c14.1-2,28.5,1.1,41.5,6.8c26.7,12,47.2,34.5,56.6,62.2c3,8.9,4.7,18.2,8.4,26.8
	c6.4,14.9,18,26.9,25.3,41.3c9.8,19.8,10.7,42.8,2.6,63.4c-8.4,20.9-26,38.5-28.6,60.9c-1.9,16.1,4.2,33.8-3.7,48.1
	c-5.9,10.7-18.2,16.2-29.8,20.2c-26.9,9.4-64.6,24.6-91.6,10.2C56.9,358.6,39.4,334.7,35.9,307.9z"/>
<path class="st6" d="M111.5,328.5c0,0,39.7-16,44.7-25s12-62,12-62"/>
<line class="st6" x1="111.2" y1="573.5" x2="111.2" y2="228.5"/>
<path class="st3" d="M162.7,694.4c12.3,0.8,25.3,5.1,36.5-0.1c2.9-1.3,5.5-3.3,8.5-4.3c6.9-2.5,14.5-0.1,21.4,2.2
	c54.3,18,110.2,31,166.9,38.9c11.7,1.6,23.9,3,35-0.8c8.1-2.8,15.2-8.1,23.3-11.1c13.2-4.9,27.7-3.1,41.8-2.3
	c36.7,2,73.5-3.6,108-16.5l1.8-0.7c17.4-6.7,37.1-4.1,52.1,7c5.9,4.3,12.1,8.1,18.6,11.3c21.9,11,31,37.5,20.6,59.7l-0.2,0.5
	c-5.7,12.5-10.5,26.4-21.7,34.3c-10.6,7.5-24.4,7.8-37.4,7.8l-79.4,0.2c-8.2,0-16.6,0-24.6-1.9c-7.2-1.8-13.9-5.1-20.5-8.4
	l-35.5-17.7c-14.3-7.1-30-14.4-45.7-11.2c-16,3.3-27.5,16.8-41.5,25.3c-21.6,13.2-50.4,13.7-72.5,1.3c-10.6-5.9-19.8-14.6-31.3-18.3
	c-19.1-6.2-39.3,2.4-58.9,6.5c-38.1,8-83.1-2.9-112.4-29.3C77.8,733,122.1,691.8,162.7,694.4z"/>
<g class="st8">
	
		<linearGradient id="SVGID_4_" gradientUnits="userSpaceOnUse" x1="377.2275" y1="355.69" x2="377.2275" y2="355.8" gradientTransform="matrix(1 0 0 -1 -176.17 794.82)">
		<stop  offset="0" style="stop-color:#808080;stop-opacity:0.25"/>
		<stop  offset="0.54" style="stop-color:#808080;stop-opacity:0.12"/>
		<stop  offset="1" style="stop-color:#808080;stop-opacity:0.1"/>
	</linearGradient>
	<path class="st9" d="M201.1,439.1V439C201.1,439.1,201.1,439.1,201.1,439.1z"/>
	
		<linearGradient id="SVGID_5_" gradientUnits="userSpaceOnUse" x1="613.4269" y1="19.9105" x2="613.4269" y2="601.22" gradientTransform="matrix(1 0 0 -1 -176.17 794.82)">
		<stop  offset="0" style="stop-color:#808080;stop-opacity:0.25"/>
		<stop  offset="0.54" style="stop-color:#808080;stop-opacity:0.12"/>
		<stop  offset="1" style="stop-color:#808080;stop-opacity:0.1"/>
	</linearGradient>
	<path class="st10" d="M673.9,333.6c-1.4-2.4-4.8-3.1-7.7-4.3c-6.4-2.6-11-8.1-11.7-14.1c-0.5-4,0.6-8.5-2.1-11.9
		c-1.2-1.4-3-2.5-4.4-3.7c-3.2-2.7-4.8-6.3-6.3-9.9c-4.1-10.1-7.1-20.5-8.9-31.3c-0.8-4.8-1.4-9.7-3.8-14.1
		c-5.5-10.1-19.1-15.1-32-16.9c-5.1-0.7-10.4-1.1-15.4,0.1c-4.4,1.2-8.5,3.1-12.2,5.6c-3.9,2.4-7.4,5.2-10.7,8.3
		c-2.5,2.2-4.4,5-5.6,8.1c-1,3,0.6,4.8,3.3,5.9c-4.8,6-7.4,13.6-7.4,21.3c-0.1,14.7,9.4,27.7,23.3,32.3c-0.1,1.5-0.5,3-1.2,4.3
		c-3.2,1.9-15.1,7.9-28.6,5.1c-2.8-0.6-5.5,0.8-8.1,3.6c-12.5,12-22.3,55.4-22.3,55.4l-36.4,52.3l0.5,0.5l-0.5,0.8l0.9,0.9
		l-29.8,27.8c-0.1-0.3-0.2-0.6-0.2-0.8l-8.5-12.4v-0.1l0.5-0.2l4-18.5l-8.6,2l-0.1-0.1l0,0l-0.5-0.7l0,0l-33.2-49.5L370,321.1l0,0
		l-0.9-1.8c0,0,0.4,0.7,0.8,1.5v0.1l0.1,0.1v0.1l0.1,0.2l0.1,0.1l0.1,0.1l0.1,0.1l0,0.1l0.1,0.2v0.1l0.1,0.1v0.1l0.1,0.1l0,0
		l0.1,0.1l0,0l0.1,0.1l0,0l0.1,0.1l0,0l0,0l0,0c0,0,0-0.1,0-0.1l0,0v-0.1l0,0l-0.1-0.2l0,0l-0.1-0.3v-0.1l-0.1-0.3v-0.1l-0.2-0.4
		v-0.1l-0.2-0.4l-0.1-0.1l-0.2-0.5l0-0.1l-0.3-0.6l-0.1-0.2l-0.3-0.6l-0.1-0.2l-0.4-0.8c-4.6-10.6-11.3-15.9-11.3-15.9
		c-13-2.2-25.5-6.4-37.1-12.6v-0.6l-8.6-4c-1.4-3.7-2.6-7.6-3.5-11.5c15-3.8,25.4-17.4,25.3-32.8c0-0.7,0-1.5-0.1-2.2
		c0.6-0.2,1.2-0.4,1.8-0.8c3.5-2.4,2.6-8.2,5.7-11.1c1.4-1.3,3.5-1.8,4.6-3.4c0.6-1,1-2.2,1.1-3.3c0.8-4.9,1-10.6-2.6-13.9
		c-0.3-0.4-0.6-0.7-1-1c-4.7-3.7-11.7-0.6-17.5-2c-2.5-0.6-4.7-2-7-3.2c-9.2-4.7-20-5.4-30.3-5.4c-5.2,0-10.5,0.2-15.5,1.6
		c-5,1.4-9.8,4.3-12.6,8.6c-1.5,2.5-2.6,5.1-3.3,7.9c-3.1,11-4.1,22.5-2.9,33.9c0.5,4.3,1.4,8.9,4.6,11.7c0.2,0.2,0.4,0.5,0.7,0.7
		c2.1,1.8,4.7,2.8,7.5,3.1c2.4,0.3,4.8-0.1,7-1.2c0,5.8-0.5,11.7-1.4,17.5c-1.8,0.9-14,7-15.9,15.5c-6.2,2.5-13.3,5.2-18.9,7.3
		c-1.2-0.3-2.4-0.4-3.7-0.1c-21.9,4-23.2,27.1-23.2,27.1s-4,66.2-9.3,87.4c-1.6,7.2-1.9,14.6-0.9,21.9l0,0v0.2
		c0.1,0.8,0.2,1.6,0.4,2.4l0,0l0,0c1.2,6.8,3.1,13.5,5.9,19.9c0.2-2,1.4-3.7,3.1-4.7l0.1,0.6h0.1l2.7,23.3c0,0,7.9,25.2,13.2,26.5
		c0.2,0.1,0.5,0.1,0.7,0.1l1.6,6.9l0.2-0.1l5.5,26.9l9.9,43l10.6,125.1h3.8l-2.5,15.9c0,0-33.8,42.4-23.9,48.3s25.2,8.6,39.7-13.9
		c2-5.3,5.1-10,9.3-13.9c3.3-2.9,5-7.2,4.6-11.6l-2.5-24.8h3.2l-0.1-0.3h0.1c-2.5-8.7-3.8-17.7-3.9-26.8c0-4,0.4-8,1.3-11.9
		c2.4-10.7,2.9-29,2.9-41.9c0-7.8-0.2-13.8-0.2-15.1l7.9-71.4c0,0,11.9,71.5,17.2,77.5l13.9,86.7l5.6,0.6l-2.9,18.6
		c0,0-33.8,42.4-23.8,48.3s25.2,8.6,39.7-13.9c2-5.3,5.1-10,9.3-13.9c3.3-2.9,5-7.2,4.6-11.6l-2.5-25l2.5,0.3c0,0,0.3-9.4,0.3-22.3
		c0-22.8-1-56.9-7-70.1c0,0-1.8-16.6-1.8-34.7c-0.1-8.7,0.5-17.3,1.8-25.9c1.8-10.8,2.5-29.6,2.8-46.8l0.9-3.8l-0.8-0.5
		c0-3.9,0-7.7,0-11.2c0-5,0-9.6-0.1-13.3l0.3-0.3c1.2-1,2.1-2.2,2.8-3.5c0.7-2.6,1.3-23.2-3.3-37.7c-2-6.6-3.2-13.4-3.5-20.3
		c0.1-0.2,0.2-0.5,0.2-0.7l-0.2,0.2c-0.1-2.7-0.2-5.5-0.1-8.4c0.1-0.4,0.3-0.7,0.4-1.1l-0.4,0.4c0.1-6,0.5-12.3,1-19.1
		c0-0.5,0.1-1.1,0.1-1.6v-0.5c0-0.4,0.1-0.7,0.1-1.1l0-0.5c0-0.4,0.1-0.7,0.1-1v-0.4c0.1-0.5,0.1-0.9,0.2-1.3V381
		c0.1-0.4,0.1-0.7,0.2-1.1l0.1-0.4c0-0.3,0.1-0.6,0.2-0.8l0.1-0.3c0.1-0.3,0.1-0.6,0.2-0.9v-0.2c0.1-0.3,0.1-0.7,0.2-1v-0.2
		c0.1-0.3,0.1-0.5,0.2-0.8l0.1-0.3l0.2-0.6l0.1-0.2c0.1-0.3,0.2-0.5,0.3-0.8l0,0c0.1-0.3,0.2-0.5,0.3-0.7l0-0.1l0.2-0.5l0.1-0.2
		l0.2-0.5l0.1-0.1c0.2-0.4,0.3-0.7,0.5-1l0.1-0.1l0.2-0.3l0.1-0.1l0.2-0.3l0.1-0.1l0.2-0.3v-0.1l0.2-0.2c0.3-0.3,0.7-0.5,1.2-0.6
		c1.3,12.6,22.5,33.8,22.5,33.8c1.9,9,23,36.5,24.4,38.3l-7.9,6l0.1,0.1l-0.8,0.6l19.9,12.6c0.2-0.3,0.3-0.5,0.5-0.7l0.1,0.1
		c0.4-0.7,0.9-1.3,1.5-1.9c1.6-1.5,3.4-2.8,5.4-3.9c3.2,4.1,4.7,9.2,4.4,14.4c-0.7,13.9,2,33.8,2,33.8s4,4,6.6-9.3c0,0,3.6,7,7,8.3
		s21.8,0,17.9-13.2c0,0-0.4-0.6-1.1-1.6c3.5-2.5,5.8-6.4,6.3-10.6l25.8-28.5l2,2c0,0,13.2-6.6,26.5-28.5
		c8.8-14.4,13.5-23.7,15.6-28.3l-9.7,29.6l-2,25.8c0,0-7.4,6.7-7.1,18.9c0,1.8,0.1,3.6,0.4,5.4c-3.5,10.3-6.8,31.5,0.8,70.4
		l3.3,61.6l-7.9,96l2.2-0.2l1.1,21.4l-1.3,19.9c0,0-6.6,25.2,9.3,27.1s13.3-25.9,13.3-25.9v-27.1l-2-7.9l-1.3-9.5l15.8-82.6
		c0,0,6-17.9,7.9-25.2l0.1-0.5v-0.2l0.1-0.4v-0.2l0.1-0.6v-0.1l0.2-0.8l0-0.3l0.1-0.7l0.1-0.3l0.2-0.8v-0.1l0.2-1.1l0.1-0.3l0.2-0.9
		l0.1-0.4l0.2-1l0-0.3l0.3-1.3l0.1-0.3l0.2-1.1l0.1-0.4l0.2-1.2l0.1-0.3l0.3-1.5l0.1-0.3l0.2-1.2l0.1-0.5l0.2-1.1l0.1-0.5l0.3-1.6
		l0-0.3l0.3-1.4l0.1-0.5l0.2-1.2l0.1-0.6l0.3-1.7v-0.2l0.3-1.6l0.1-0.5l0.2-1.3l0.1-0.5l0.6-3.5l0.1-0.6l0.2-1.3l0.1-0.4l0.3-1.8
		l0,0l0.3-1.8l0.1-0.5l0.2-1.1l0.1-0.8l0.2-1.3l0.1-0.3l0.3-1.7l0.1-0.5l0.2-1.1l0.1-0.6l0.2-1.3v-0.2l0.3-1.6v-0.1l0,0
		c1.6-9.4,2.7-16.3,2.7-16.3l5.3,70.2c0,0,0.7,15.2,4,19.9l4,81.4h0.7l-1.2,9.9l-2,8V739c0,0-2.7,27.8,13.2,25.8s9.3-27.1,9.3-27.1
		l-1.3-19.8l1.2-22.5h0.1c0,0,7.9-52.3,7.9-92.7c0-24.9,7.8-47.8,13.8-61.7c2.9,1.4,6.9-0.7,10.8-4c8.6-7.2,13.6-17.9,13.7-29.1
		v-7.2l3.7-31c3.2-1.4,5.8-3.4,6.3-6c0-0.1,0.1-0.3,0.1-0.5c0.3-0.5,0.4-1,0.6-1.5c1.4-6.1-2.5-64.9-4.9-99
		c3.7,0.1,7.4-0.5,10.8-1.8l-0.5-0.2c0.4-0.1,0.8-0.3,1.2-0.4c-4.3-1.8-7.6-5.4-8.9-9.8c4.7-1.3,9-3.8,12.5-7.3
		c0.6-0.5,1.1-1.1,1.6-1.7C674,339.1,675.4,336.1,673.9,333.6z M230.4,450.3c-0.5,9.3-1.2,16.4-1.8,21.5l-1.3-1.6l-2.3-19.7
		C227.6,450.3,229.7,450.3,230.4,450.3z M228,415.2l2.7-21.7c0.5,15.1,0.6,28.3,0.4,39.4l-3-0.5L228,415.2z M636.2,494
		c-0.8,0.4-1.5,0.8-2.1,1.4c-0.5-4.5-1.4-9-2.8-13.3c0.2-0.4,0.4-0.9,0.6-1.4c0.2-0.4,0.3-0.9,0.4-1.3c0.1-0.2,0.2-0.4,0.3-0.7
		c3.5-9.3-1.2-47.2-2.4-56.3h3l2,51c0,0,1.3-0.1,3.3-0.3L636.2,494z"/>
</g>
<path class="st11" d="M513,688.9l1.3,24.4l-1.3,19.3c0,0-6.4,24.4,9,26.3s12.8-25,12.8-25v-26.4l-1.9-7.7l-1.9-14.1L513,688.9z"/>
<path class="st11" d="M598.4,686.4l-1.3,24.4l1.3,19.3c0,0,6.4,24.4-9,26.3s-12.8-25-12.8-25V705l1.9-7.7l1.9-14.1L598.4,686.4z"/>
<path class="st12" d="M647.5,464.2l-4.3,36v6.9c-0.1,10.9-4.9,21.2-13.3,28.2c-4.5,3.8-9.1,6.1-12,2.7c-7.2-8.3,3.6-40.5,12.3-44.3
	l3.6-32.1L647.5,464.2z"/>
<path class="st13" d="M518.8,463.5c0,0-14.8,16.7-3.2,76.4l3.2,59.7l-7.7,93.2l20.6-2l15.4-80.3c0,0,5.8-17.3,7.7-24.4
	s11.6-64.9,11.6-64.9l5.1,68.1c0,0,0.6,14.8,3.8,19.3l3.8,79l19.3,1.3c0,0,7.7-50.7,7.7-89.9s19.9-73.2,19.9-73.2s8.3-28.2-4.5-53.3
	S518.8,463.5,518.8,463.5z"/>
<g class="st14">
	<path d="M562.4,521.3c0,0-9.6,57.8-11.6,64.9s-7.7,24.4-7.7,24.4l-15.4,80.2l-16.7,1.6v0.4l20.5-1.9l15.4-80.3
		c0,0,5.8-17.3,7.7-24.4c1.3-4.7,5.9-31.4,8.9-49.1L562.4,521.3z"/>
	<path d="M621.5,472.5c-5.8-11.3-27.4-14.3-49.3-14c20.5,0.2,39.9,3.4,45.4,14c12.8,25,4.5,53.3,4.5,53.3s-19.9,34-19.9,73.2
		c0,37.6-7.1,85.8-7.7,89.7l3.8,0.3c0,0,7.7-50.7,7.7-89.9s19.9-73.2,19.9-73.2S634.4,497.6,621.5,472.5z"/>
</g>
<path class="st11" d="M264.5,694.7l-3.2,20.5c0,0-32.7,41.1-23.1,46.9s24.4,8.3,38.5-13.5c1.9-5.1,5-9.8,9-13.5l0,0
	c3.2-2.8,4.9-7,4.5-11.3l-3.2-31.7L264.5,694.7z"/>
<path class="st11" d="M334.5,694.7l-3.2,20.5c0,0-32.8,41.1-23.1,46.9s24.4,8.3,38.5-13.5c1.9-5.1,5-9.8,9-13.5l0,0
	c3.2-2.8,4.9-7,4.5-11.3l-3.2-31.7L334.5,694.7z"/>
<path class="st15" d="M228.5,479.6l11.6,57.1l9.6,41.7L260,699.8h30.9c0,0-6.4-20.5-2.6-37.9c3.8-17.3,2.6-55.2,2.6-55.2l7.7-69.3
	c0,0,11.6,69.3,16.7,75.1l13.5,84.1l31.4,3.2c0,0,2.6-69.3-6.4-89.3c0,0-3.8-36,0-59.1s2.6-83.5,2.6-83.5L228.5,479.6z"/>
<g class="st14">
	<path d="M290.8,606.4l6.5-58c-1.2-6.8-2-11.3-2-11.3l-7.7,69.3c0,0,1.3,37.9-2.6,55.2c-3.8,17.3,2.6,37.9,2.6,37.9h3.3
		c0,0-6.4-20.5-2.6-37.9C292.1,644.3,290.8,606.4,290.8,606.4z"/>
	<path d="M353.7,610.3c0,0-3.8-36,0-59.1s2.6-83.5,2.6-83.5l-3.2,0.3c0.1,4.5,1.1,61-2.6,83.2c-3.8,23.1,0,59.1,0,59.1
		c8.6,19.1,6.6,83.9,6.4,88.9l3.2,0.3C360.2,699.5,362.7,630.2,353.7,610.3z"/>
</g>
<path class="st16" d="M278.6,258.7c0,0,2.6,39.8-12.2,44.3c0,0-3.8,27.6,19.3,33.4c23.1,5.8,36.6-41.1,36.6-41.1l-5.1-1.9
	c0,0-7.7-18-5.1-25L278.6,258.7z"/>
<path class="st12" d="M477.7,431.4l-36.6,34l16,21.2c0,0,7.1-3.9,7.7-11.6l30.8-34L477.7,431.4z"/>
<path class="st16" d="M418,449.4c0,0,10.3,5.1,9.6,18.6s1.9,32.8,1.9,32.8s3.8,3.8,6.4-9c0,0,3.5,6.7,6.7,8s21.2,0,17.3-12.8
	c0,0-11.2-16.4-13.8-27.3l-12.8-18.6L418,449.4z"/>
<path class="st17" d="M262.5,304.3l21.8,24.4l45-27L355,477c1.9,2,1.9,5.1,0,7.1c0,0-71.9,25-114.9,1.3L262.5,304.3z"/>
<path class="st17" d="M262.5,306.2l21.8,24.4l45-27l25.7,175.3c1.9,2,1.9,5.1,0,7.1c0,0-71.9,25-114.9,1.3L262.5,306.2z"/>
<path class="st18" d="M262.5,304.9l21.8,24.4l45-27l25.7,175.3c1.9,2,1.9,5.1,0,7.1c0,0-71.9,25-114.9,1.3L262.5,304.9z"/>
<path class="st17" d="M234.3,310.1c0,0,29.5-10.9,39.2-15.4c0,0-14.1,180.4-7.1,197.8c0,0-28.3-5.8-32.1-10.9c0,0,8.4-43.7,0-134.2
	L234.3,310.1z"/>
<path class="st19" d="M233.7,309.4c0,0,29.5-10.9,39.2-15.4c0,0-14.1,180.4-7.1,197.8c0,0-28.3-5.8-32.1-10.9c0,0,8.4-43.7,0-134.2
	V309.4z"/>
<path class="st16" d="M216.3,450.7l3.2,27.6c0,0,7.7,24.4,12.8,25.7s19.3-10.9,19.3-10.9l-18-22.5l-3.8-32.8L216.3,450.7z"/>
<path class="st17" d="M437.8,448.1c0,0-16.7,4.5-21.8,12.2l-19.3-12.2l8.3-6.4c0,0-21.8-28.3-23.8-37.2c0,0-20.5-20.5-21.8-32.8
	c0,0-5.1,0.6-6.4,19.3s-1.9,33.4,2.6,47.5s3.8,34,3.2,36.6s-20.5,21.8-52,24.4L303,310.7l15.7-18.3c0,0,15.1,10.6,40.8,15.1
	c0,0,6.4,5.1,10.9,15.4s0,1.9,0,1.9l30.2,58.4l32.8,48.8l8.3-1.9L437.8,448.1z"/>
<path class="st17" d="M229.8,438.5l-13.5,12.8l0.5,4.4c3.7-2.4,10-3.3,14.6-3.6L229.8,438.5z"/>
<path class="st19" d="M438.5,447.5c0,0-16.7,4.5-21.8,12.2l-19.3-12.2l8.3-6.4c0,0-21.8-28.2-23.8-37.2c0,0-20.5-20.5-21.8-32.8
	c0,0-5.1,0.6-6.4,19.3s-1.9,33.4,2.6,47.5s3.8,34,3.2,36.6s-20.5,21.8-52,24.4l-3.9-188.8l15.7-18.3c0,0,15.1,10.6,40.8,15.1
	c0,0,6.4,5.1,10.9,15.4s0,1.9,0,1.9l30.2,58.4l32.8,48.8l8.3-1.9L438.5,447.5z"/>
<path class="st12" d="M566.9,306.2c0,0,6.4,16-9,17.3s19.9,43,19.9,43s32.8-7.1,37.9-21.2s3.8-19.9-3.8-26.3s-19.9-3.2-19.9-3.2
	s-8.3-4.5-5.8-11.6S566.9,306.2,566.9,306.2z"/>
<path class="st17" d="M579.8,325.5c0,0-12.2,1.9-16-5.1c0,0-9.6,8.4-25,5.1S509.8,382,509.8,382l-35.3,50.7l17.3,16.7
	c0,0,12.8-6.4,25.7-27.6s16.7-30.8,16.7-30.8l-10.9,33.4l-1.9,25c0,0-14.1,12.8-1.9,35.3c0,0,10.9,10.9,31.5-5.1l25-4.5
	c0,0,17.3,20.5,27,19.9s19.3-3.8,23.1-14.1s-2.6-56.5-2.6-56.5h3.8l1.9,49.5c0,0,21.8-1.3,23.8-9.6s-6.4-119.4-6.4-119.4
	s-18-21.8-29.5-27.6s-21.2,27.6-21.2,27.6L581,358.2L579.8,325.5z"/>
<path class="st17" d="M580.4,323.6c0,0-8.7,1.6-12.5-5.5c0,0-13.2,8.7-28.6,5.5s-28.9,56.5-28.9,56.5l-35.3,50.8l17.3,16.7
	c0,0,12.8-6.4,25.7-27.6s16.7-30.9,16.7-30.9l-10.9,33.4l-1.9,25c0,0-14.2,12.9-1.9,35.4c0,0,10.9,10.9,31.5-5.1l25-4.5
	c0,0,17.3,20.5,27,19.9s19.3-3.8,23.1-14.1s-2.6-56.5-2.6-56.5h3.8l1.9,49.4c0,0,21.8-1.3,23.8-9.6s-6.4-119.4-6.4-119.4
	s-18-21.8-29.5-27.6s-21.2,27.6-21.2,27.6l-14.8,13.5L580.4,323.6z"/>
<path class="st20" d="M579.8,324.2c0,0-8.7,1.6-12.5-5.5c0,0-13.2,8.7-28.6,5.5s-28.9,56.5-28.9,56.5l-35.3,50.7l17.4,16.7
	c0,0,12.8-6.4,25.7-27.6s16.7-30.8,16.7-30.8l-10.9,33.4l-1.9,25c0,0-14.1,12.8-1.9,35.3c0,0,10.9,10.9,31.5-5.1l25-4.5
	c0,0,17.3,20.5,27,19.9s19.3-3.8,23.1-14.1s-2.6-56.5-2.6-56.5h3.8l1.9,49.5c0,0,21.8-1.3,23.8-9.6s-6.4-119.4-6.4-119.4
	s-18-21.8-29.5-27.6s-21.2,27.7-21.2,27.7L581.1,357L579.8,324.2z"/>
<path class="st17" d="M277.6,284.1c0,0-17.7,8-15.7,18.9l10,3L277.6,284.1z"/>
<path class="st21" d="M277.6,283.4c0,0-17.7,8-15.7,18.9l10,3L277.6,283.4z"/>
<polygon class="st17" points="310.4,303.3 324.2,310.7 324.2,294.7 315.8,290.7 "/>
<polygon class="st21" points="310.4,302.7 324.2,310.1 324.2,294 315.8,290.1 "/>
<path class="st19" d="M236.8,451.4c0,0-22.5-0.6-23.1,8.4c0,0-10.3-22.5-5.1-43s9-84.8,9-84.8s1.3-22.5,22.5-26.3s0,64.9,0,64.9
	l-5.8,46.9v16.7l3.9,0.6L236.8,451.4z"/>
<polygon class="st17" points="233.3,503 252.6,492.8 258.4,496.6 235.3,511.4 "/>
<polygon class="st22" points="232.7,502.4 252,492.1 257.7,496 234.6,510.7 "/>
<polygon class="st17" points="356.6,503 337.4,492.8 331.6,496.6 354.7,511.4 "/>
<polygon class="st22" points="357.3,502.4 338,492.1 332.2,496 355.3,510.7 "/>
<path class="st17" d="M278.6,259.4c0,0,0.2,3.1,0.2,7.6c5.9,8.5,15.6,13.5,26,13.5c2.6,0,5.1-0.3,7.6-0.9c-0.9-4-1.3-8-0.4-10.6
	L278.6,259.4z"/>
<ellipse class="st16" cx="304.8" cy="247.1" rx="32.1" ry="32.8"/>
<polygon class="st17" points="405.4,440.7 433.5,430.6 433.7,431.1 406.1,441.4 "/>
<path class="st17" d="M207.8,437.8l26.5-4.7l-0.3,0.5c0,0-26.6,4.6-25.8,6.8L207.8,437.8z"/>
<path class="st19" d="M237.2,348.9c0,0-1.9,31.5,2.6,40.5"/>
<g class="st14">
	<path d="M370.4,324.2l30.2,58.4l32.8,48.8l0.6-0.1l-32.7-48.7L372,326C373.6,330,370.4,324.2,370.4,324.2z"/>
	<path d="M441.7,429.7l-3.8,17.8c0,0-16.3,4.4-21.6,11.9l0.4,0.3c5.1-7.7,21.8-12.2,21.8-12.2l3.8-18L441.7,429.7z"/>
	<path d="M359.5,306.8c0,0,6.4,5.1,10.9,15.4c0.6,1.4,1.1,2.5,1.4,3.3c1,1.9,2.5,4.2-0.7-3.3c-4.5-10.3-10.9-15.4-10.9-15.4
		c-25.7-4.5-40.8-15.1-40.8-15.1l-0.2,0.3C321.7,293.7,336.3,302.8,359.5,306.8z"/>
	<path d="M353.7,390.4c1-14.7,4.4-18.2,5.8-19c0-0.1,0-0.2,0-0.3s-5.1,0.6-6.4,19.3s-1.9,33.4,2.6,47.5s3.8,34,3.2,36.6
		s-20.3,21.5-51.4,24.4l0,0c31.5-2.6,51.4-21.8,52-24.4s1.3-22.5-3.2-36.6S352.5,409,353.7,390.4z"/>
</g>
<path class="st17" d="M344.4,336.7c0,0,13.5,28.9,12.8,30.2"/>
<path class="st17" d="M335.4,426.6c1.9-0.6,15.6-10,17.7-18.1"/>
<path class="st17" d="M335.4,435.6c1.9-0.6,15.6-10,17.7-18.1"/>
<circle class="st23" cx="310.4" cy="336.7" r="1.9"/>
<circle class="st23" cx="310.4" cy="365.6" r="1.9"/>
<circle class="st23" cx="310.4" cy="348.3" r="1.9"/>
<circle class="st23" cx="311" cy="383" r="1.9"/>
<circle class="st23" cx="311" cy="411.8" r="1.9"/>
<circle class="st23" cx="311" cy="394.5" r="1.9"/>
<circle class="st23" cx="311.7" cy="429.2" r="1.9"/>
<circle class="st23" cx="311.7" cy="458.1" r="1.9"/>
<circle class="st23" cx="311.7" cy="440.7" r="1.9"/>
<path class="st17" d="M539.6,370.8c0,0-1.9,26.3,3.8,34.7"/>
<path class="st17" d="M618.6,374c0,0,8.3,25.7,3.2,43.7"/>
<path class="st17" d="M509.8,382c0,0,10,21.5,13.8,21.5"/>
<path class="st17" d="M322.8,243.8c3.8,1.7,8,2.2,12.1,1.5c1.3-0.1,2.5-0.5,3.7-1.2c3.4-2.3,2.5-8,5.5-10.7c1.4-1.3,3.4-1.8,4.5-3.3
	c0.6-1,1-2.1,1-3.2c0.8-4.9,1-10.7-2.9-13.7c-4.6-3.6-11.3-0.6-17-2c-2.4-0.6-4.5-2-6.8-3.1c-9-4.6-19.4-5.3-29.4-5.3
	c-5,0-10.2,0.2-15,1.6c-4.8,1.4-9.5,4.1-12.3,8.3c-1.4,2.4-2.5,5-3.2,7.7c-3,10.7-4,21.9-2.8,32.9c0.4,4.1,1.4,8.6,4.5,11.4
	c2.1,1.7,4.6,2.8,7.2,3c3.7,0.5,8.2-0.6,9.4-4.2c1-2.9-0.5-7,2.1-8.6c1.1-0.5,2.3-0.7,3.5-0.5l9.9,0.7c1.4,0.1,2.9,0.1,4-0.7
	c1-0.9,1.5-2.2,1.5-3.6c0.4-4.1-1.8-17.6,3.9-18.2S318.1,241.5,322.8,243.8z"/>
<path class="st24" d="M322.1,243.2c3.8,1.7,8,2.2,12.1,1.5c1.3-0.1,2.5-0.5,3.7-1.2c3.4-2.3,2.5-8,5.5-10.7c1.4-1.3,3.4-1.8,4.5-3.3
	c0.6-1,1-2.1,1-3.2c0.8-4.9,1-10.7-2.9-13.7c-4.6-3.6-11.3-0.6-17-2c-2.4-0.6-4.5-2-6.8-3.1c-9-4.6-19.4-5.3-29.4-5.3
	c-5,0-10.2,0.2-15,1.6c-4.8,1.4-9.5,4.1-12.3,8.3c-1.4,2.4-2.5,5-3.2,7.7c-3,10.7-4,21.9-2.8,32.9c0.4,4.1,1.4,8.6,4.5,11.4
	c2.1,1.7,4.6,2.8,7.2,3c3.7,0.5,8.2-0.6,9.4-4.2c1-2.9-0.5-7,2.1-8.6c1.1-0.5,2.3-0.7,3.5-0.5l9.9,0.7c1.4,0.1,2.9,0.1,4-0.7
	c1-0.9,1.5-2.2,1.5-3.6c0.4-4.1-1.8-17.6,3.9-18.2S317.4,240.9,322.1,243.2z"/>
<path class="st17" d="M586.8,304.9c2.6-7.1-19.3,1.9-19.3,1.9c1,2.8,1.5,5.7,1.2,8.7c6.8,1.7,13.9,1.1,20.4-1.7
	C587.2,311.8,585.5,308.7,586.8,304.9z"/>
<ellipse class="st12" cx="577.7" cy="283.1" rx="32.1" ry="32.8"/>
<path class="st17" d="M565.3,265c5.7,1.1,11.7,3.7,13.3,8.4c0.7,2.3,0.3,4.8,1.7,6.8c0.9,1.2,2.1,2.1,3.3,2.9
	c5.3,3.9,9.3,9.8,7.7,15.6c-1.2,4.3-5.2,7.7-6.2,12c-1.2,5.1,2.2,10.1,5,14.7s5.4,10.2,2.8,14.9c-1.3,2.2-3.6,4-4.3,6.4
	c-1.4,4.7,3.9,8.7,8.8,11.1c5.9,2.9,12.2,5.1,18.6,6.6c3.3,0.8,6.8,1.5,9.8,3c1.9,1,3.5,2.3,5.4,3.3c5,2.6,10.8,3.2,16.2,1.6
	l-5.1-7.3c5.7,1.7,11.7,1.5,17.2-0.6c-4.3-1.8-7.6-5.5-8.8-10c5.3-1.3,10.1-4.2,13.8-8.3c1.9-2.2,3.3-5.2,1.8-7.6s-4.7-3-7.4-4.1
	c-6.2-2.5-10.7-7.9-11.3-13.7c-0.5-3.9,0.6-8.3-2.1-11.5c-1.2-1.4-2.9-2.4-4.3-3.6c-3-2.6-4.7-6.1-6.1-9.6c-4-9.8-6.9-19.9-8.7-30.3
	c-0.8-4.6-1.4-9.4-3.7-13.7c-5.3-9.8-18.5-14.7-31.1-16.4c-5-0.7-10.1-1-14.9,0.1c-4.2,1.1-8.2,3-11.8,5.5
	c-5.8,3.7-13.1,9.1-15.2,15.3C547.2,263.7,559.7,263.8,565.3,265z"/>
<path class="st25" d="M565.9,264.3c5.7,1.1,11.7,3.7,13.3,8.4c0.7,2.3,0.3,4.8,1.7,6.8c0.9,1.2,2.1,2.1,3.3,2.9
	c5.3,3.9,9.3,9.8,7.7,15.6c-1.2,4.3-5.2,7.7-6.2,12c-1.2,5.1,2.2,10.1,5,14.7s5.4,10.2,2.8,14.9c-1.3,2.2-3.6,4-4.3,6.4
	c-1.4,4.7,3.9,8.7,8.8,11.1c5.9,2.9,12.2,5.1,18.6,6.6c3.3,0.8,6.8,1.5,9.8,3c1.9,1,3.5,2.3,5.4,3.3c5,2.6,10.8,3.2,16.2,1.6
	l-5.1-7.3c5.7,1.7,11.7,1.5,17.2-0.6c-4.3-1.8-7.6-5.5-8.8-10c5.3-1.3,10.1-4.2,13.8-8.3c1.9-2.2,3.3-5.2,1.8-7.6s-4.7-3-7.4-4.1
	c-6.2-2.5-10.7-7.9-11.3-13.7c-0.5-3.9,0.6-8.3-2.1-11.5c-1.2-1.4-2.9-2.4-4.3-3.6c-3-2.6-4.7-6.1-6.1-9.6c-4-9.8-6.9-19.9-8.7-30.3
	c-0.8-4.6-1.4-9.4-3.7-13.7c-5.3-9.8-18.5-14.7-31.1-16.4c-5-0.7-10.1-1-14.9,0.1c-4.2,1.1-8.2,3-11.8,5.5
	c-5.8,3.7-13.1,9.1-15.2,15.3C547.8,263.1,560.3,263.2,565.9,264.3z"/>
<path class="st0" d="M252,77.5c-2,0-4.3,0-5.8,0.1c-0.7,0-1.4,0.2-2,0.3l-10.4,3.1c8.4,0.2,17.1,0.1,25.6,0.1l48.1-0.3
	c4.9,0,10-0.1,14.1-0.3c2.7-0.2,4.8-0.4,7.3-0.6c9.1-0.7,22.4-0.6,34.2-0.5s26.2-0.2,30.3-1.2h-25.4c-2.7,0-5.6,0-8-0.1
	c-2.8-0.1-4.5-0.4-7-0.6c-4.1-0.3-9.8-0.3-15.1-0.3C308.9,77,280.3,77.6,252,77.5z"/>
<path class="st0" d="M274,169.5c-2,0-4.3,0-5.8,0.1c-0.7,0-1.4,0.2-2,0.4l-10.4,3.1c8.4,0.2,17.1,0.1,25.6,0.1l48.1-0.3
	c4.9,0,10.1-0.1,14.1-0.3c2.7-0.2,4.8-0.4,7.3-0.6c9.1-0.7,22.4-0.6,34.2-0.5s26.2-0.2,30.3-1.2h-25.4c-2.7,0-5.6,0-8-0.1
	c-2.8-0.1-4.5-0.4-7-0.6c-4.1-0.3-9.8-0.3-15.1-0.4C330.9,169.1,302.3,169.6,274,169.5z"/>
</svg>
