<?xml version="1.0" encoding="utf-8"?>
<!-- Generator: Adobe Illustrator 24.0.1, SVG Export Plug-In . SVG Version: 6.00 Build 0)  -->
<svg version="1.1" id="_x37_1f7c613-2b64-40c8-917c-08a5745b7a35"
	 xmlns="http://www.w3.org/2000/svg" xmlns:xlink="http://www.w3.org/1999/xlink" x="0px" y="0px" viewBox="0 0 73.7 56.4"
	 style="enable-background:new 0 0 73.7 56.4;" xml:space="preserve">
<style type="text/css">
	.st0{opacity:0.5;fill:#FFFFFF;}
</style>
<title>emails</title>
<path class="st0" d="M71.7,18.8c0.4-0.3,0.9-0.2,1.2,0.1c0.1,0.1,0.2,0.3,0.2,0.5v28.8c0,3.7-3,6.8-6.8,6.8l0,0H7.8
	C4,55,1,52,1,48.3l0,0V19.5c0-0.5,0.4-0.8,0.9-0.8c0.2,0,0.4,0.1,0.5,0.2c3.2,2.5,7.3,5.6,21.7,16c3,2.2,8,6.7,13,6.7
	s10.1-4.6,13-6.7C64.4,24.4,68.5,21.3,71.7,18.8z M37,37c3.3,0,8-4.1,10.3-5.8C66,17.6,67.4,16.5,71.8,13.1c0.8-0.6,1.3-1.6,1.3-2.7
	V7.8C73,4,70,1,66.3,1H7.8C4,1,1,4,1,7.8v2.7c0,1,0.5,2,1.3,2.7c4.3,3.4,5.7,4.5,24.4,18.1C29,32.9,33.7,37.1,37,37L37,37z"/>
</svg>
