<?xml version="1.0" encoding="utf-8"?>
<!-- Generator: Adobe Illustrator 24.0.1, SVG Export Plug-In . SVG Version: 6.00 Build 0)  -->
<svg version="1.1" id="Camada_1" xmlns="http://www.w3.org/2000/svg" xmlns:xlink="http://www.w3.org/1999/xlink" x="0px" y="0px"
	 viewBox="0 0 682.5 487.1" style="enable-background:new 0 0 682.5 487.1;" xml:space="preserve">
<style type="text/css">
	.st0{opacity:0.1;fill:#6C63FF;enable-background:new    ;}
	.st1{opacity:0.8;}
	.st2{fill:#65617D;}
	.st3{fill:#DCE0ED;}
	.st4{opacity:0.1;enable-background:new    ;}
	.st5{fill:#F0F0F4;}
	.st6{fill:#636780;}
	.st7{opacity:0.1;fill:#FFFFFF;enable-background:new    ;}
	.st8{fill:#6C63FF;}
	.st9{opacity:0.15;enable-background:new    ;}
	.st10{fill:none;stroke:#000000;stroke-miterlimit:10;}
	.st11{fill:#FFFFFF;}
	.st12{opacity:5.000000e-02;fill:#6C63FF;enable-background:new    ;}
	.st13{fill:#535461;}
	.st14{fill:#FBA70B;}
	.st15{fill:url(#SVGID_1_);}
	.st16{opacity:5.000000e-02;enable-background:new    ;}
	.st17{fill:url(#SVGID_2_);}
	.st18{fill:url(#SVGID_3_);}
	.st19{fill:#4B4C56;}
	.st20{fill:url(#SVGID_4_);}
	.st21{fill:url(#SVGID_5_);}
	.st22{fill:#A8A8A8;}
</style>
<title>carAndBike</title>
<g id="ec20663a-47a1-42a3-991c-bc307f281f8f">
	<ellipse class="st0" cx="341.2" cy="319" rx="341.2" ry="168"/>
	<g class="st1">
		<path class="st2" d="M314.2,35.4c9.4,13.2,16.7,51.8,18.7,63.4l16.9-0.3c-0.9-10-20.5-50.6-26-61.7
			C320.8,36.3,317.5,35.8,314.2,35.4z"/>
		
			<rect x="101.9" y="28.4" transform="matrix(1.884847e-02 -0.9998 0.9998 1.884847e-02 73.0339 138.6149)" class="st3" width="10.5" height="7.5"/>
		<path class="st4" d="M103.5,26.8l-0.1,3.4c0.5,0.2,1.1,0.3,1.6,0.3l5.8,0.1l0.1-3.6L103.5,26.8z"/>
		<path class="st3" d="M114.7,0.1L107.6,0c-3.5-0.1-6.6,2-8,5.1c-2.2,5-4.1,13.1,0.4,21.3c1,1.8,3,3,5.1,3l9,0.1L114.7,0.1z"/>
		
			<ellipse transform="matrix(1.884847e-02 -0.9998 0.9998 1.884847e-02 97.373 128.8991)" class="st5" cx="114.4" cy="14.8" rx="14.7" ry="7.6"/>
		
			<rect x="169" y="29.1" transform="matrix(1.884847e-02 -0.9998 0.9998 1.884847e-02 137.4734 205.7418)" class="st3" width="9.2" height="7.5"/>
		<path class="st4" d="M169.9,28.1l-0.1,2.9c0.5,0.2,1.1,0.2,1.6,0.3l5.9,0.1v-3.1L169.9,28.1z"/>
		<path class="st3" d="M181.1,1.5L174,1.4c-3.4-0.1-6.6,2-7.9,5.1c-2.2,5.1-4.1,13.1,0.4,21.3c1,1.8,3,3,5.1,3l9,0.1L181.1,1.5z"/>
		
			<ellipse transform="matrix(1.884847e-02 -0.9998 0.9998 1.884847e-02 161.1552 196.6507)" class="st5" cx="180.8" cy="16.2" rx="14.7" ry="7.6"/>
		<path class="st3" d="M179.1,6.9c0,0,2.8,0.5,1.3,4.1c-0.8,1.8-1.4,3.6-1.8,5.5c0,0-2.8,1.4-2.6-3.4S179.1,6.9,179.1,6.9z"/>
		
			<ellipse transform="matrix(1.884847e-02 -0.9998 0.9998 1.884847e-02 227.5017 676.4472)" class="st6" cx="458.4" cy="222.3" rx="48.4" ry="44.1"/>
		<path class="st4" d="M442.8,176.7c23,2,40.9,23.3,40.5,49c-0.4,20.7-12.6,38.2-29.4,44.7c-23-2-40.9-23.3-40.5-49
			C413.7,200.7,425.9,183.2,442.8,176.7z"/>
		
			<ellipse transform="matrix(1.884847e-02 -0.9998 0.9998 1.884847e-02 2.9068 223.2077)" class="st6" cx="115.2" cy="110.1" rx="46.7" ry="35.8"/>
		<path class="st4" d="M126,65.6c14.7,6,25.2,24.1,24.8,45.3c-0.4,22.7-13.2,41.3-29.7,45.2c-14.7-6-25.2-24.1-24.8-45.3
			C96.8,88.2,109.5,69.5,126,65.6z"/>
		<path class="st2" d="M249.9,102.7l-0.3-17c0,0,3.5-7.3,6.8-7.8s11-0.9,11-0.9s5.5,24.4,1.4,31.7S249.9,102.7,249.9,102.7z"/>
		<path class="st4" d="M249.9,102.7l-0.3-17c0,0,3.5-7.3,6.8-7.8s11-0.9,11-0.9s5.5,24.4,1.4,31.7S249.9,102.7,249.9,102.7z"/>
		<path class="st2" d="M311.2,102c0,0,2.5-23.5-10.4-24.1c-1.7-0.1-3.3-0.2-5-0.3c-8.9-1-33.3-3.4-30.5,2.3c0,0,5.4,20.5,1.3,25.6
			L311.2,102z"/>
		<path class="st2" d="M127.4,142.1l-17.3,0.2c0,0-2.4-32-3.3-34.5s-1.2-14.5,2.1-16.2s14.2-3.6,14.2-3.6l7.6,18.3l0.3,16.5
			L127.4,142.1z"/>
		<path class="st4" d="M127.4,142.1l-17.3,0.2c0,0-2.4-32-3.3-34.5s-1.2-14.5,2.1-16.2s14.2-3.6,14.2-3.6l7.6,18.3l0.3,16.5
			L127.4,142.1z"/>
		<path class="st2" d="M170.3,90l0.1-3.6c0.1-1.1-0.8-2.1-1.9-2.1c0,0-0.1,0-0.1,0h-0.1c-8.6,0.2-39.9,1.1-45.4,3.8
			c0,0,5.1,44.6-1.7,55.1l1.6,35.7l76.6-4.3L170.3,90z"/>
		<path class="st4" d="M177.3,33.9c-2.1-0.3-4.6-0.5-7.5-0.8l-0.1,4.3l7.5,0.1L177.3,33.9z"/>
		<path class="st4" d="M103.3,36.8v0.5l7.5,0.1l0.1-3.2C108.2,34.7,105.7,35.6,103.3,36.8z"/>
		<polygon class="st3" points="63.8,142.1 75.1,142.4 99.3,100.5 103.3,93.4 100.6,75.4 98.3,79.8 		"/>
		<polygon class="st3" points="167,91.8 171.5,98.9 185.8,80.3 192.3,71.9 188.6,66.6 185.6,70.1 		"/>
		<path class="st4" d="M185.6,70.1c0,0.4-0.1,0.7-0.1,1.1l0.3,9.1l6.5-8.5l-3.7-5.2L185.6,70.1z"/>
		<polygon class="st4" points="98.3,79.8 99.3,100.5 103.3,93.4 100.6,75.4 		"/>
		<path class="st3" d="M198.5,83.6c0,0,6.4-41.6-13.8-48.2c-0.3-0.1-0.5-0.1-0.8-0.2c-4.7-0.7-48.1-6.5-70.9-1c0,0-15.5,2-15.5,10.3
			l4.9,101.6l11.1,0.2l-2.4-67.2c0,0-4.8-29.3,4.1-31.2s48.9-4.4,63-0.1c0,0,10.3-2.1,8.2,23.3l0.4,13.6L198.5,83.6z"/>
		<path class="st2" d="M164.4,95.3c-0.1-2.2,0.9-4.4,2.7-5.7c3.2-2.3,12.9-7.2,12.9-7.2l3.1,0.3l8.9,23.3l-1.6,49.2l-17.2,20.5
			L164.4,95.3z"/>
		<path class="st4" d="M164.4,95.3c-0.1-2.2,0.9-4.4,2.7-5.7c3.2-2.3,12.9-7.2,12.9-7.2l3.1,0.3l8.9,23.3l-1.6,49.2l-17.2,20.5
			L164.4,95.3z"/>
		<path class="st2" d="M230.6,148.2l0.6-50.5c0,0,1.9-19.6-9.8-20.1c0,0-27.6-0.3-39.7,3.3c-1.4,0.4-2.2,1.9-1.8,3.3
			c0.1,0.2,0.1,0.3,0.2,0.5c2.3,4.2,6.1,15.3,7.6,43.6l-0.6,30.3L230.6,148.2z"/>
		<polygon class="st2" points="171.7,179.4 222,179.2 222,179.2 246.7,179.1 244.5,146 230.8,146.2 187,155.1 173.2,175.8 		"/>
		<polygon class="st4" points="171.7,179.4 222,179.2 222,179.2 246.7,179.1 244.5,146 230.8,146.2 187,155.1 173.2,175.8 		"/>
		<polygon class="st2" points="171.7,179.4 222,179.2 223.2,157 187,155.1 173.2,175.8 		"/>
		<path class="st7" d="M222,179.2l24.7-0.1l-2.2-33.1c0,0-8,12.2-21.3,11.1L222,179.2z"/>
		<path class="st3" d="M44.2,202.5c0.8,9.5,7.6,8.1,7.6,8.1l1.3-0.1l12.5-0.9L65.3,195c-4.2-0.3-8.5-0.2-12.6,0.5
			C48,196.3,43.8,198.3,44.2,202.5z"/>
		<path class="st4" d="M44.2,202.5c0.8,9.5,7.6,8.1,7.6,8.1l1.3-0.1c1.4-2.1,2.1-4.6,2.1-7.1c0.2-2.9-0.7-5.7-2.5-8
			C48,196.3,43.8,198.3,44.2,202.5z"/>
		<path class="st6" d="M218,109.5c-0.3,15.4,8.7,28,20.1,28.2s20.8-12.1,21.1-27.4s-8.7-28-20.1-28.2S218.3,94.1,218,109.5z
			 M225.8,111.5c0.2-11.2,7.4-20,16.1-19.9s15.5,9.3,15.3,20.5s-7.4,20.1-16.1,19.9S225.6,122.6,225.8,111.5z"/>
		<polygon class="st6" points="237.4,118.4 227.6,127.7 224.3,119.2 238.4,111.3 		"/>
		<polygon class="st8" points="225,24.4 216.6,25.3 213.4,28.9 217.7,50.3 227.1,84.7 233.2,108.3 237.6,122.6 240.2,141.5 
			242.9,154.6 251.6,163.6 270,142.7 273,135.7 280.4,121.3 262.3,112.4 242.3,110.3 233.3,85.9 226.1,57.8 		"/>
		<polyline class="st2" points="392.8,128.8 402,221.1 264.1,212.7 280.9,167.8 307.8,151 247,150.8 247.1,125.6 271.8,120.7 
			321.4,117.7 358.6,116.7 394,129 		"/>
		<polyline class="st4" points="392.8,128.8 402,221.1 264.1,212.7 280.9,167.8 307.8,151 247,150.8 247.1,125.6 271.8,120.7 
			321.4,117.7 358.6,116.7 394,129 		"/>
		<path class="st6" d="M202.4,217c-0.4,22.9,6.8,43.8,27.9,42c26.6-0.1,29-18,29.5-40.9s-12.1-40.1-27.9-40.5S202.9,194.1,202.4,217
			z"/>
		<path class="st4" d="M202.3,217c0.3-17.7,8.3-31.8,19.2-37.1c13.9,2.9,24.2,19.1,23.8,40c-0.4,18.7-2.1,34.2-17.3,39.2
			C208.6,259.4,201.9,239.1,202.3,217z"/>
		<polygon class="st8" points="176,180.6 184,190 169.4,187.3 158.7,177 149.3,157.4 135.8,148.7 102.1,152.6 70.9,153.2 
			59.6,142.8 72.5,141.3 85.5,141.3 118.1,141.1 156.9,140.9 164.4,162.2 170.2,176.9 		"/>
		<path class="st2" d="M63.7,216.4c0.6,1,22.3,4.7,22.3,4.7l59.9,12.1l103.3,3.4l12.3-10.1l6.4,1.3h0.3l84.8,16.7l1.4-0.2l23.3-2.9
			l121.5-15l-1-17.6l-0.6-10.4l-1.3-21.5l-1.1-5.7l-10.8-1.2l-5-0.6l-78.5-8.7l-10.3-1.1l-5.8-0.6l-56-8.7l-82,0.4l0.1-25.3
			L216.6,25.3c-7.2,1-7.1,5.8-7.1,5.8l25.8,94.4l-0.8,57.7c-57.5,4.7-59.1-7.8-68.2-3.8L156,144.1l-96.4-1.3
			C55.7,147.4,63.7,216.4,63.7,216.4z"/>
		<polygon class="st2" points="303.8,168.5 272,233.6 261.6,236.7 259.3,226 271.5,189.9 283.7,169 		"/>
		<polygon class="st9" points="303.8,168.5 272,233.6 261.6,236.7 259.3,226 271.5,189.9 283.7,169 		"/>
		
			<ellipse transform="matrix(1.884847e-02 -0.9998 0.9998 1.884847e-02 75.11 558.8986)" class="st6" cx="322.3" cy="241.2" rx="62.8" ry="55.4"/>
		<path class="st4" d="M303.7,181.9c28.9,2.6,51.4,30.3,50.7,63.6c-0.5,26.9-15.9,49.6-37,58.1c-28.9-2.6-51.4-30.3-50.7-63.7
			C267.2,213.1,282.6,190.5,303.7,181.9z"/>
		<path class="st2" d="M472.8,134.2l2.5,13l7.7,39.7l36.1-2.8c0,0,2.3-6.6-3.3-9.2c0,0-1.4-22.5-8-29.7c-0.7-0.8-1.6-1.5-2.6-1.9
			L472.8,134.2z"/>
		<path class="st7" d="M475.3,147.1l7.7,39.7l36.1-2.8c0,0,2.3-6.6-3.3-9.2c0,0-1.4-22.5-8-29.7L475.3,147.1z"/>
		<path class="st2" d="M391.5,136.1c-4.8,7.7,5.1,79.9,5.1,79.9l88.8-12.9l-2-63c-1.6-11.3-8.2-12.8-8.2-12.8
			c-30.9-16.4-102.6-21-102.6-21c-65.5,1.3-125.5,19.4-125.5,19.4C321.8,115.5,391.5,136.1,391.5,136.1z"/>
		<path class="st4" d="M396.6,216l88.8-12.9l-2-63c-1.6-11.3-8.2-12.8-8.2-12.8s-64.5-7.4-83.8,8.9C386.7,143.8,396.6,216,396.6,216
			z"/>
		<path class="st2" d="M406.1,212l74.3-11.1l-1.6-53.8c-1.3-9.7-6.9-10.9-6.9-10.9s-53.9-6.3-70,7.6
			C397.8,150.5,406.1,212,406.1,212z"/>
		
			<ellipse transform="matrix(1.884847e-02 -0.9998 0.9998 1.884847e-02 237.3043 577.6907)" class="st4" cx="413" cy="167.9" rx="18.4" ry="10.1"/>
		
			<ellipse transform="matrix(1.884847e-02 -0.9998 0.9998 1.884847e-02 237.8039 577.2009)" class="st3" cx="413" cy="167.4" rx="18.4" ry="10.1"/>
		<path class="st5" d="M411.9,153.8c0,0,4.1,0.8,1.9,6.2c-1.2,2.6-2.1,5.4-2.6,8.3c0,0-4.2,2.1-3.9-5.1S411.9,153.8,411.9,153.8z"/>
		
			<ellipse transform="matrix(1.884847e-02 -0.9998 0.9998 1.884847e-02 297.033 625.9786)" class="st4" cx="467.5" cy="161.6" rx="17.2" ry="9.5"/>
		
			<ellipse transform="matrix(1.884847e-02 -0.9998 0.9998 1.884847e-02 297.5326 625.4889)" class="st3" cx="467.5" cy="161.1" rx="17.2" ry="9.5"/>
		<path class="st5" d="M466.4,147.5c0,0,4.1,0.7,1.9,6.2c-1.2,2.6-2.1,5.4-2.6,8.3c0,0-4.2,2.1-3.9-5.1S466.4,147.5,466.4,147.5z"/>
		<path class="st4" d="M424.9,152.5c0.5,6.8,2.9,57.4,2.9,57.4l5.6-0.8l3.1-0.5l4.2-0.6l0.5-0.1l16.5-2.4l-2.2-53.6
			c-0.2-3.6-3.1-6.4-6.7-6.4h-0.5c-1.1,0.1-2.4,0.2-3.6,0.3l-1.6,0.2c-1.6,0.2-3.2,0.4-4.8,0.6c-0.8,0.1-1.6,0.3-2.4,0.4
			c-1.3,0.3-2.6,0.5-3.9,0.8c-0.8,0.2-1.6,0.4-2.3,0.7C426.8,149.4,424.8,150.8,424.9,152.5z"/>
		<path class="st2" d="M448.9,145.4l2.1,60.3l1.8-0.1l-2.1-59.9C450.2,145.5,449.6,145.4,448.9,145.4z"/>
		<path class="st2" d="M443.1,145.9l1.9,60.9h2.8l-3.1-61.1L443.1,145.9z"/>
		<path class="st2" d="M435.9,146.9l3.6,61.1h1.8l0,0l-3-61.4C437.5,146.6,436.7,146.8,435.9,146.9z"/>
		<path class="st2" d="M429.8,148.4l3.7,60.7v0.1l3.2-0.3v-0.3l-4.6-60.9C431.2,147.9,430.5,148.2,429.8,148.4z"/>
		<path class="st4" d="M496.4,196.6c0,0,6.7-31.4-7.2-33.3s-59.8,0.6-58.7,13.6s2.3,32.7,2.3,32.7l9.5-1.9c0,0-6.5-29.8,4.6-30.7
			s38.3-3.5,38.3-3.5s7.4-1.1,2.6,24.9L496.4,196.6z"/>
		<path class="st3" d="M496.4,199.6c0,0,6.7-33.4-7.2-35.3s-59.8,0.6-58.7,13.6s2.2,32.7,2.2,32.7l9.5-1.9c0,0-6.5-29.8,4.6-30.7
			s38.3-3.5,38.3-3.5s7.3,0.9,2.6,26.9L496.4,199.6z"/>
		<path class="st2" d="M249.3,236.6l12.3,0.1c9.7-39.4,25-63.7,25-63.7c5-2.6,59.5-1.2,59.5-1.2c5.6,1.1,6.8,19.1,6.8,19.1
			s-4.9,4.1-0.3,6.8c2,1.2,8.9,1.6,16.8,1.3c9.8-0.3,21.2-1.6,27.1-3.3c10.7-3.1,2.4-9.4,2.4-9.4s-1.5-2-2.3-13
			c-0.6-6.4-2.5-12.6-5.7-18.2c-0.4-0.8-0.7-1.2-0.7-1.2c-0.5-0.5-1.2-1-1.9-1.3c-14-6.1-83.1-1.9-83.1-1.9l-25.7,7.7
			c-0.7,0.3-1.8,2.1-3.2,4.9C267.7,180.5,249.3,236.6,249.3,236.6z"/>
		<path class="st4" d="M249.3,236.6l12.3,0.1c9.7-39.4,25-63.7,25-63.7c5-2.6,59.5-1.2,59.5-1.2c5.6,1.1,6.8,19.1,6.8,19.1
			s-4.9,4.1-0.3,6.8c2,1.2,8.9,1.6,16.8,1.3c9.8-0.3,21.2-1.6,27.1-3.3c10.7-3.1,2.4-9.4,2.4-9.4s-1.5-2-2.3-13
			c-0.6-6.4-2.5-12.6-5.7-18.2c-0.4-0.8-0.7-1.2-0.7-1.2c-0.5-0.5-1.2-1-1.9-1.3c-14-6.1-83.1-1.9-83.1-1.9l-25.7,7.7
			c-0.7,0.3-1.8,2.1-3.2,4.9C267.7,180.5,249.3,236.6,249.3,236.6z"/>
		<path class="st2" d="M276.1,163.4c23.8-8.7,88.8-2.6,88.8-2.6c7-5.8,20-5.9,26-5.6c-0.4-0.8-0.7-1.2-0.7-1.2
			c-0.5-0.5-1.2-1-1.9-1.3c-14-6.1-83.1-1.9-83.1-1.9l-25.7,7.7C278.7,158.7,277.5,160.5,276.1,163.4z"/>
		<path class="st2" d="M361.1,163.1c1.4,5.2,7.2,25.9,7.2,25.9c0.6,3.3,1,6.6,1.2,10c9.8-0.3,21.2-1.6,27.1-3.3
			c10.7-3.1,2.4-9.4,2.4-9.4s-1.5-2-2.3-13c-0.6-6.9-2.8-13.5-6.5-19.4c-0.5-0.5-1.2-1-1.9-1.3C379,154.6,360,159.2,361.1,163.1z"/>
		<path class="st7" d="M361.1,163.1c1.4,5.2,7.2,25.9,7.2,25.9c0.6,3.3,1,6.6,1.2,10c9.8-0.3,21.2-1.6,27.1-3.3
			c10.7-3.1,2.4-9.4,2.4-9.4s-1.5-2-2.3-13c-0.6-6.9-2.8-13.5-6.5-19.4c-0.5-0.5-1.2-1-1.9-1.3C379,154.6,360,159.2,361.1,163.1z"/>
		<path class="st2" d="M216.6,25.3l30.5,100.3l127.2-18.4l-16.8-60.3c0,0-2.6-13.8-9.2-14.9C348.3,32,246.6,12.4,216.6,25.3z
			 M230.8,41c-4.1-13.5,56.4-6.8,56.4-6.8c8.1-0.6,18,0.1,27.1,1.2c3.3,0.4,6.6,0.9,9.6,1.3c6.8,1.1,12.5,2.2,16,2.9
			c2.2,0.5,3.5,0.7,3.5,0.7c12,4,17.9,53.9,17.9,53.9c0.9,5.3-5.3,4-5.3,4h-0.4l-5.7,0.1l-16.9,0.3l-82.3,1.7
			c-4.9-0.6-5.5-6.3-5.5-6.3C242.5,90,230.8,41,230.8,41z"/>
		<path class="st2" d="M355.4,98.3h0.4c0,0,6.2,1.2,5.3-4c0,0-5.9-50-17.9-53.9c0,0-1.3-0.3-3.5-0.7C344,48.3,357.5,77.9,355.4,98.3
			z"/>
		<path class="st4" d="M355.4,98.3h0.4c0,0,6.2,1.2,5.3-4c0,0-5.9-50-17.9-53.9c0,0-1.3-0.3-3.5-0.7C344,48.3,357.5,77.9,355.4,98.3
			z"/>
		<path class="st4" d="M341.9,221.1c1.4,2.8,4.3,4.5,7.4,4.4l2.5-0.1l24-0.6l8.6-0.2l8-0.5L498.1,209l-0.6-10.4l-12.1,1.5l-5,0.6
			l-74.5,9.2l-9.8,1.2l-4.8,0.6l-20.1-0.5l-21.8-0.6c-1.1,0-2.2,0.2-3.2,0.6c-1.9,0.7-3.4,2.1-4.3,3.9
			C340.9,217,341,219.2,341.9,221.1z"/>
		<path class="st3" d="M341.9,222.1c1.4,2.8,4.3,4.5,7.4,4.4l35.1-0.9l8-0.5L505.1,209l8.9-1.3l4.8-0.7c9.5-1.8,6.9-11.3,6.9-11.3
			c-0.6-4.3-16.8-8.6-22.1-8.6c-3.6,0-4.2,5.5-4.2,9.1c0,1.8,0.1,3.1,0.1,3.1l-5.3,0.6l-103,12.8l-41.9-1.1
			c-3.2-0.1-6.1,1.6-7.5,4.5C340.9,218,341,220.2,341.9,222.1z"/>
		<path class="st4" d="M511.1,193.2c0,0-4.6,5.4-11.6,6.1C499.5,199.3,502.4,193.2,511.1,193.2z"/>
		<path class="st4" d="M512,208.7c0,0,14.8,0,14.6,7.9s-9.5,9.1-9.5,9.1l-132.6,22.9H347c0,0-12.9-10.7,0.8-15.1l37.9,1.7L512,214.5
			C512,214.5,508.8,210,512,208.7z"/>
		<path class="st3" d="M347,249.6h37.6l117.9-20.4l8.6-1.5l6.1-1c0,0,9.3-1.2,9.5-9.1c0.1-5.7-7.5-7.3-11.8-7.8
			c-1.7-0.2-2.9-0.2-2.9-0.2c-3.2,1.3,0.1,5.8,0.1,5.8l-4.6,0.8l-121.8,20l-37.9-1.7C334,238.9,347,249.6,347,249.6z"/>
		<path class="st3" d="M501,202l-7.8-3.6l-4-0.2l-0.3,33.6l12.3-2.3l5.2-3.2l2.8-13.9c0,0-0.9-5.8-1.4-6.3S501,202,501,202z"/>
		<path class="st4" d="M501,202l-7.8-3.6l-4-0.2l-0.3,33.6l12.3-2.3l5.2-3.2l2.8-13.9c0,0-0.9-5.8-1.4-6.3S501,202,501,202z"/>
		<path class="st4" d="M502.4,229.3l-0.1,0.2l8.7-1.5l0.1-0.2c4.7-7.3,5.2-13.2,3.8-17.9c-1.7-0.2-2.9-0.2-2.9-0.2
			c-3.2,1.3,0.1,5.8,0.1,5.8l-4.6,0.8C507.6,222.8,503.3,228.3,502.4,229.3z"/>
		<path class="st4" d="M490.2,198.1c1.5,0.6,2.8,1.2,4,1.8c5.5,2.8,8.9,5.9,10.9,9l8.9-1.3c-3.7-8-12.8-11.8-12.8-11.8l-1.9,0.4
			L490.2,198.1z"/>
		<path class="st3" d="M500.2,195.9c0,0,24.1,10.1,9.7,32.1l-8.7,1.5c0,0,17.5-19.3-12-31.3L500.2,195.9z"/>
		<polygon class="st3" points="442.2,205.6 433.3,205.1 434.1,241.1 448.6,238.8 454.8,235.9 457.7,228.8 459.9,221.7 455.2,215.1 
			449.8,211.4 		"/>
		<polygon class="st4" points="442.2,205.6 433.3,205.1 434.1,241.1 448.6,238.8 454.8,235.9 457.7,228.8 459.9,221.7 455.2,215.1 
			449.8,211.4 		"/>
		
			<ellipse transform="matrix(1.884847e-02 -0.9998 0.9998 1.884847e-02 210.3593 662.7036)" class="st3" cx="442.8" cy="224.2" rx="7.3" ry="4.3"/>
		<path class="st6" d="M483.9,234.9c1.2,0.5,1.7,1.9,1.2,3.1l-0.1,0.2c-1,1.8-2.2,4.2-2.1,4.8c0.2,1.1-2.2,0.1-2.5-0.1
			s-4.6-0.1-4.8-3c-0.1-1.8,0.9-3.5,2.4-4.4l-0.9-6.4l5.9-0.4l-0.2,5.9L483.9,234.9z"/>
		<path class="st4" d="M483.9,234.9c1.2,0.5,1.7,1.9,1.2,3.1l-0.1,0.2c-1,1.8-2.2,4.2-2.1,4.8c0.2,1.1-2.2,0.1-2.5-0.1
			s-4.6-0.1-4.8-3c-0.1-1.8,0.9-3.5,2.4-4.4l-0.9-6.4l5.9-0.4l-0.2,5.9L483.9,234.9z"/>
		<path class="st4" d="M482.3,234.7c0,0-2.1,6.8-1.3,7.1S482.3,234.7,482.3,234.7z"/>
		<path class="st4" d="M480,233.1c0,0-2.1,6.8-1.3,7.1S480,233.1,480,233.1z"/>
		<path class="st6" d="M456.5,212l2.9,20.7c0,0,4.1-0.5,6.4-0.9c0.5-0.1,1-0.2,1.4-0.4c0.1-0.1,0.4-0.1,0.7,0l0,0
			c1.1,0.2,3.1,1.2,3.5,0.4c0-0.1,0.1-0.1,0.1-0.2l0,0c0.4-0.4,1.1-0.1,1.9,0c0.4,0.1,0.8,0.1,1.2-0.1c0.6-0.4,1.9,0.3,2.9,0.5
			c0.6,0.1,1.2,0.1,1.5-0.4c0.2-0.4,0.6-0.6,1-0.7l0,0c1-0.2,2.3,0,3.1-0.2c0.3,0,0.5-0.2,0.6-0.4c0.2-0.4,1-0.6,1.9-0.8
			c1.1-0.2,2.3-0.3,2.4-0.8c0-0.1,0.1-0.2,0.3-0.2c0.6,0.1,1.2,0.3,1.8,0.5l0,0c0.5,0.1,0.9,0.1,1-0.2s0.7-0.3,1.4-0.2
			s1.1,0.4,1.5,0.5s0.7,0.1,0.8-0.1c0.2-0.7,2.3,0.9,2.8-0.4s7.5-10-1.1-21.6c0,0-2.4,0.1-4.2,0.4c-0.6,0.1-1.2,0.2-1.8,0.5l0,0
			c-1,0.3-2.1,0.4-3.2,0.3c-0.6,0-1.2,0.1-1.8,0.4c-0.2,0.1-0.4,0.3-0.5,0.5c-0.3,0.6-0.9,0.8-1.6,0.7c-0.9-0.1-2-0.4-2.4-0.3l0,0
			c-0.7,0.3-3.3-0.1-3.8,0.4l0,0c-0.2,0.3-1.2,0-2.3-0.2l0,0c-0.7-0.2-1.5-0.1-2.1,0.3c-0.5,0.3-1,0.5-1.6,0.4
			c-0.7-0.1-1.4-0.1-2.1,0c-0.2,0-0.3,0.1-0.4,0.3c-0.4,0.5-1.5,0.4-2.4,0.4c-0.5,0-0.9,0.1-1.3,0.3c-0.1,0.1-0.3,0.2-0.5,0.2
			c-1.3,0.1-2.7,0-4-0.3L456.5,212z"/>
		<path class="st4" d="M492.5,228.6c0.5,0.1,1.1,0.4,1.5,0.5c7-10.3,1.4-18.4-1.7-21.7c-0.6,0.1-1.2,0.2-1.8,0.5
			C497.2,215.7,493.9,225.4,492.5,228.6z"/>
		<path class="st4" d="M488.3,228.5c0.6,0.1,1.2,0.3,1.8,0.5l0,0c6-10.1,0.2-17.9-2.8-20.9c-0.6,0-1.2,0.1-1.8,0.4
			C491.9,215.7,489.8,224.4,488.3,228.5z"/>
		<path class="st4" d="M483,230.6c0.3,0,0.5-0.2,0.6-0.4c0.2-0.4,1-0.6,1.9-0.8c5.2-9.2,0.9-16.4-2.2-19.8c-0.9-0.1-2-0.4-2.4-0.3
			l0,0C488,217.6,484.4,227.7,483,230.6z"/>
		<path class="st4" d="M477.5,232c0.6,0.1,1.2,0.1,1.5-0.4c0.2-0.4,0.6-0.6,1-0.7l0,0c6.1-10.2,0.2-18-2.7-21l0,0
			c-0.2,0.3-1.2,0-2.3-0.2C483.2,218.3,478.6,229.5,477.5,232z"/>
		<path class="st4" d="M471.6,231.5c0.4-0.4,1.1-0.1,1.9,0c6.4-10.1,0.8-17.9-2.2-21.1c-0.7-0.1-1.4-0.1-2.1,0
			C476.2,218.3,473,228.1,471.6,231.5z"/>
		<path class="st4" d="M465.9,231.7c0.5-0.1,1-0.2,1.4-0.4c0.1-0.1,0.4-0.1,0.7,0l0,0c5.6-9.2,1.4-16.5-1.6-20.1
			c-0.5,0-0.9,0.1-1.3,0.3c-0.1,0.1-0.3,0.2-0.5,0.2C470.4,219.5,467.2,228.7,465.9,231.7z"/>
		
			<ellipse transform="matrix(1.884847e-02 -0.9998 0.9998 1.884847e-02 55.0031 543.703)" class="st6" cx="304.5" cy="243.8" rx="39.9" ry="27.1"/>
		
			<ellipse transform="matrix(1.884847e-02 -0.9998 0.9998 1.884847e-02 55.2915 545.1999)" class="st4" cx="305.4" cy="244.4" rx="32.3" ry="19.7"/>
		
			<ellipse transform="matrix(1.884847e-02 -0.9998 0.9998 1.884847e-02 56.3103 544.2404)" class="st5" cx="305.5" cy="243.4" rx="32.3" ry="19.7"/>
		
			<ellipse transform="matrix(1.884847e-02 -0.9998 0.9998 1.884847e-02 74.9509 519.7347)" class="st6" cx="302.3" cy="221.7" rx="4" ry="2.3"/>
		
			<ellipse transform="matrix(1.884847e-02 -0.9998 0.9998 1.884847e-02 30.4582 543.8406)" class="st6" cx="292.3" cy="256.4" rx="4" ry="2.3"/>
		
			<ellipse transform="matrix(1.884847e-02 -0.9998 0.9998 1.884847e-02 71.5281 553.3926)" class="st6" cx="317.7" cy="240.3" rx="4" ry="2.3"/>
		
			<ellipse transform="matrix(1.884847e-02 -0.9998 0.9998 1.884847e-02 41.2732 568.8513)" class="st6" cx="310.5" cy="263.4" rx="4" ry="2.3"/>
		<path class="st2" d="M107.7,166.3c0,0-20.4,51.5-19.5,54.7c0,0-8.3,4.8-10.3,3.5s0.2-24.2,0.2-24.2l4.1-20.1l4.5-11.9L107.7,166.3
			z"/>
		<path class="st9" d="M107.7,166.3c0,0-20.4,51.5-19.5,54.7c0,0-8.3,4.8-10.3,3.5s0.2-24.2,0.2-24.2l4.1-20.1l4.5-11.9L107.7,166.3
			z"/>
		
			<ellipse transform="matrix(1.884847e-02 -0.9998 0.9998 1.884847e-02 49.2574 519.6595)" class="st6" cx="289.4" cy="234.7" rx="4" ry="2.3"/>
		
			<ellipse transform="matrix(1.884847e-02 -0.9998 0.9998 1.884847e-02 51.5987 541.8023)" class="st6" cx="301.9" cy="244.6" rx="9.5" ry="6.8"/>
		<path class="st6" d="M84.7,235.2c-0.6,30,8.9,57.5,36.6,55c34.9-0.1,38.1-23.6,38.7-53.6s-15.9-52.6-36.7-53
			S85.3,205.2,84.7,235.2z"/>
		<path class="st4" d="M84.5,235.3c0.5-23.3,10.9-41.7,25.2-48.6c18.2,3.8,31.8,25.1,31.3,52.4c-0.5,24.6-2.7,44.8-22.7,51.4
			C92.8,290.9,84,264.2,84.5,235.3z"/>
		<path class="st4" d="M70.3,222.2c0,0,4.9,4.3,7.7,1.4c0,0,7.8-53.7,16.2-53.8l29.2,0.3c0,0,3.5,1.6,4.8,8.1l17.9,54l103.3,3.4
			l8.2-16.4l-85.5-1.4l0,0c-0.4-1.7-13.8-52.9-23.2-59.5l0,0c-0.3-0.2-0.6-0.4-1-0.5c0,0-35.5-5.4-47.3-2.4c0,0-12.3,2.5-15.3,6.2
			l0,0c-0.4,0.4-5.1,5.5-6.8,20.5L70.3,222.2z"/>
		<path class="st2" d="M70.3,223.2c0,0,4.9,4.3,7.7,1.4c0,0,7.7-53.7,16.2-53.8l29.2,0.3c0,0,3.5,1.6,4.8,8.1l17.9,54l103.3,3.4
			l8.2-16.4l-85.5-1.4l0,0c-0.4-1.7-13.8-52.9-23.2-59.5l0,0c-0.3-0.2-0.7-0.4-1.1-0.5c0,0-35.5-5.4-47.3-2.4c0,0-12.3,2.5-15.3,6.2
			l0,0c-0.4,0.4-5.1,5.5-6.8,20.5L70.3,223.2z"/>
		<path class="st4" d="M70.3,223.2c0,0,4.9,4.3,7.7,1.4c0,0,7.7-53.7,16.2-53.8l29.2,0.3c0,0,3.5,1.6,4.8,8.1l17.9,54l103.3,3.4
			l8.2-16.4l-85.5-1.4l0,0c-0.4-1.7-13.8-52.9-23.2-59.5l0,0c-0.3-0.2-0.7-0.4-1.1-0.5c0,0-35.5-5.4-47.3-2.4c0,0-12.3,2.5-15.3,6.2
			l0,0c-0.4,0.4-5.1,5.5-6.8,20.5L70.3,223.2z"/>
		<path class="st2" d="M134.7,165.6c2.4,4.8,22.7,63.5,22.7,63.5l14.6-10.2l0,0c-0.4-1.7-13.8-53-23.2-59.5
			C142.5,160.3,133,162.3,134.7,165.6z"/>
		<path class="st2" d="M163.1,139.4l11,38.6l61.1-0.6l-0.6,5.7c0,0-48,6.1-68.2-3.8L156,144.1l-96.4-1.3l18.4-4L163.1,139.4z"/>
		<path class="st7" d="M163.1,139.4l11,38.6l61.1-0.6l-0.6,5.7c0,0-48,6.1-68.2-3.8L156,144.1l-96.4-1.3l18.4-4L163.1,139.4z"/>
		<path class="st4" d="M448.2,205.3c0,0,32.4,17.1,7.9,32.1l-6.5,1.4c0,0,24.1-16.7-15.3-33.7L448.2,205.3z"/>
		<path class="st3" d="M447.2,205.3c0,0,32.4,17.1,7.9,32.1l-6.5,1.4c0,0,24.1-16.7-15.3-33.7L447.2,205.3z"/>
		
			<ellipse transform="matrix(1.884847e-02 -0.9998 0.9998 1.884847e-02 -134.0372 343.1459)" class="st6" cx="107.8" cy="239.9" rx="31.2" ry="18.2"/>
		
			<ellipse transform="matrix(1.884842e-02 -0.9998 0.9998 1.884842e-02 -134.1205 344.4272)" class="st4" cx="108.4" cy="240.5" rx="25.2" ry="13.2"/>
		
			<ellipse transform="matrix(1.884847e-02 -0.9998 0.9998 1.884847e-02 -133.1017 343.4677)" class="st5" cx="108.5" cy="239.6" rx="25.3" ry="13.2"/>
		
			<ellipse transform="matrix(1.884847e-02 -0.9998 0.9998 1.884847e-02 -118.1614 324.7316)" class="st6" cx="106.4" cy="222.6" rx="3.1" ry="1.6"/>
		
			<ellipse transform="matrix(1.884847e-02 -0.9998 0.9998 1.884847e-02 -151.9315 344.5795)" class="st6" cx="99.6" cy="249.7" rx="3.1" ry="1.6"/>
		
			<ellipse transform="matrix(1.884847e-02 -0.9998 0.9998 1.884847e-02 -122.496 349.264)" class="st6" cx="116.7" cy="237" rx="3.1" ry="1.6"/>
		
			<ellipse transform="matrix(1.884847e-02 -0.9998 0.9998 1.884847e-02 -145.4057 362.0781)" class="st6" cx="111.8" cy="255.1" rx="3.1" ry="1.6"/>
		
			<ellipse transform="matrix(1.999600e-02 -0.9998 0.9998 1.999600e-02 -137.1221 326.22)" class="st6" cx="97.8" cy="233.1" rx="3.1" ry="1.6"/>
		
			<ellipse transform="matrix(1.884847e-02 -0.9998 0.9998 1.884847e-02 -136.4089 341.9718)" class="st6" cx="106" cy="240.5" rx="7.4" ry="4.6"/>
		<path class="st4" d="M374.6,106.3c0,0-55.4,1-127.5,19.3L374.6,106.3z"/>
		<path class="st3" d="M112.5,4.5c0,0,3,0.5,1.3,4.5c-0.9,1.9-1.5,3.9-1.9,6c0,0-3,1.5-2.8-3.7S112.5,4.5,112.5,4.5z"/>
		<polyline class="st10" points="228.9,99.2 233.3,116.7 248.5,103.4 		"/>
		
			<rect x="206.5" y="115.3" transform="matrix(0.1692 -0.9856 0.9856 0.1692 54.0903 340.3285)" class="st11" width="44.8" height="45.6"/>
		<path class="st6" d="M223.3,157.7l0.8-4.9c-2.6-0.5-5.1-1.6-7.1-3.4l1.7-3.1c2.1,1.7,4.5,2.9,7.2,3.4c3.5,0.6,6.1-1,6.6-3.8
			s-1.2-4.7-4.5-6.8c-4.6-2.8-6.8-5.5-6-9.7c0.7-4,3.8-6.7,8.4-6.6l0.8-4.9l2.5,0.4L233,123c2.2,0.4,4.3,1.4,6,2.8l-1.8,3
			c-1.6-1.4-3.5-2.3-5.6-2.7c-3.8-0.6-5,1.4-5.3,3.4c-0.4,2.5,0.6,4,4.5,6.5c4.7,2.9,7.3,6,6.6,10.3c-0.7,3.9-4,7-9.1,7l-0.9,5.1
			L223.3,157.7z"/>
		<path class="st2" d="M222.5,317.7c0.8,0,1.5-0.7,1.4-1.6c0-0.8-0.6-1.5-1.4-1.5s-1.5,0.6-1.5,1.4c0,0.1,0,0.1,0,0.2
			C221.1,317,221.7,317.6,222.5,317.7z"/>
	</g>
	
		<ellipse transform="matrix(0.9987 -5.007001e-02 5.007001e-02 0.9987 -12.2699 15.0697)" class="st12" cx="294.6" cy="252.4" rx="251.2" ry="67.2"/>
</g>
<g id="Camada_2_1_">
	<path class="st13" d="M252.5,414.4l28.5-46.3l-1.8,1l-50.5,32.5l-9.7-51.5l62.1,16.5V366l-4-2.4l-28.7-46.9l28.2-6V310l1.3-0.1v0.7
		l19-4l5.4,4.9l0.4-1.1l25.4,24.5l17,15.4l-1.6,12.7l-56.6,3.6l-0.1-1.1l55.5-3.5l1.4-11.2l-12.4-11.3L284,366.4l3.1,1.8l0.3,0.1
		l0,0.1l47.6,28.2l-28.1,20l-20.5-47.3l-4-1.1l-0.1,0.1l-1.4,55.8L252.5,414.4z M254.3,413.8l25.5,8.7l1.2-52.1L254.3,413.8z
		 M288.2,370.2l19.2,44.5l25.4-18.1L288.2,370.2z M220.6,351.7l9,47.9l48.9-31.5l1.3-0.7L220.6,351.7z M301.7,312.7l-5.3-4.9
		l-18.5,3.9l4.4,53.6l0.3,0.2l1.5-2.4L301.7,312.7z M327,335.8l-24.4-22.1l-17.5,50l-0.8,1.3l45.7-26.1L327,335.8z M250.3,317.5
		l27.8,45.3l2.9,1.7l-4.3-52.6L250.3,317.5z"/>
	<path class="st13" d="M519.2,401.6l28.5-46.3l-1.8,1l-50.5,32.5l-9.7-51.5l62.1,16.5v-0.6l-4-2.4L515,304l28.2-6v-0.9l1.3-0.1v0.7
		l18.9-4l5.4,4.9l0.4-1.1l25.5,24.5l17,15.4l-1.5,12.8l-56.6,3.6l-0.1-1.1l55.5-3.5l1.3-11.2l-12.4-11.3l-47.2,26.9l3.1,1.8l0.3,0.1
		v0.1l47.5,28.2l-28.1,20L553,356.5l-4-1.1l-0.1,0.1l-1.3,55.8L519.2,401.6z M520.9,401l25.5,8.7l1.2-52.1L520.9,401z M554.8,357.5
		L574,402l25.3-18.1L554.8,357.5z M487.2,339l9,47.9l48.9-31.5l1.3-0.7L487.2,339z M568.3,300l-5.3-4.9l-18.5,3.9l4.4,53.6l0.3,0.2
		l1.5-2.4L568.3,300z M593.7,323l-24.3-22.1l-17.5,50l-0.8,1.2l45.7-26.1L593.7,323z M516.9,304.8l27.8,45.3l2.9,1.7l-4.3-52.6
		L516.9,304.8z"/>
	<polygon class="st14" points="495.2,304.9 469.6,330.1 460.9,322.8 486.5,297.6 	"/>
	<polygon class="st4" points="495.2,304.9 469.6,330.1 460.9,322.8 486.5,297.6 	"/>
	
		<linearGradient id="SVGID_1_" gradientUnits="userSpaceOnUse" x1="207.83" y1="120.4872" x2="355.2767" y2="120.4872" gradientTransform="matrix(1 0 0 -1 0 487)">
		<stop  offset="0" style="stop-color:#535461"/>
		<stop  offset="1" style="stop-color:#4B4C56"/>
	</linearGradient>
	<path class="st15" d="M278.4,299.6c-29.3,1.4-55.1,18.5-65.6,43.5c-14.6,34.6,4.4,73.2,42.4,86.2s80.6-4.7,95.2-39.3
		s-4.4-73.2-42.4-86.2c-3.2-1.1-6.5-2-9.8-2.6C291.7,299.8,285,299.3,278.4,299.6L278.4,299.6z M284.1,416.7c-4.7,0.2-9.4-0.1-14-1
		c-30.1-5.6-49.2-32.3-42.7-59.7s36-45,66.1-39.4c3.1,0.6,6.2,1.4,9.2,2.5c20.2,7.3,33.7,24.6,34.6,44.4
		C338.7,391.5,314.8,415.2,284.1,416.7L284.1,416.7z"/>
	<path class="st13" d="M391.5,229.6c0,0-74.9,7.2-73.8-1.5s74.8-9.9,74.8-9.9C397.3,223.8,391.5,229.6,391.5,229.6z"/>
	<path class="st16" d="M391.5,229.6c0,0-74.9,7.2-73.8-1.5s74.8-9.9,74.8-9.9C397.3,223.8,391.5,229.6,391.5,229.6z"/>
	<path class="st4" d="M466.7,249.3l0.4,8.9c-4.3,0.1-8.7,0-13.1-0.4l-0.4-7.9L466.7,249.3z"/>
	
		<linearGradient id="SVGID_2_" gradientUnits="userSpaceOnUse" x1="428.66" y1="239.537" x2="492.7599" y2="239.537" gradientTransform="matrix(1 0 0 -1 0 487)">
		<stop  offset="0" style="stop-color:#535461"/>
		<stop  offset="0.67" style="stop-color:#4B4C56"/>
	</linearGradient>
	<path class="st17" d="M428.7,251.1c5.8,5.2,33.5,7.5,49.4,5.4s17.5-11.8,11.3-16.9c-5-4.1-22.7-0.7-29.7,0.8
		c-1.8,0.4-3.6,0.7-5.4,0.9C438.3,243.2,428.6,251.1,428.7,251.1z"/>
	<polygon class="st14" points="458.2,292.5 316,255.5 320,245.7 458.5,277.9 	"/>
	<polygon class="st14" points="411.2,349.5 312.9,264.7 318,257.2 420.8,340.8 	"/>
	<path class="st4" d="M298.1,301.1c3.3,0.7,6.6,1.6,9.8,2.7l-5.3,15.5c-3-1.1-6.1-1.9-9.3-2.5L298.1,301.1z"/>
	
		<linearGradient id="SVGID_3_" gradientUnits="userSpaceOnUse" x1="461.4241" y1="219.1702" x2="464.114" y2="144.6902" gradientTransform="matrix(1 0 0 -1 7.859489e-04 487.0004)">
		<stop  offset="2.000000e-02" style="stop-color:#FBA70B"/>
		<stop  offset="0.73" style="stop-color:#D8860E"/>
	</linearGradient>
	<polygon class="st18" points="453.7,249.9 466.7,249.3 471.5,352.1 458.5,352.7 	"/>
	<polygon class="st14" points="316.7,236.3 319.2,228 331,233.3 329,239 286,365.4 278.8,362 	"/>
	<polygon class="st4" points="319.2,228 331,233.3 329,239 316.7,236.3 	"/>
	<path class="st13" d="M385,250.4L315,235c-4.9-8.9,7-10.8,7-10.8l69.6,18.2C395.5,250.8,385,250.4,385,250.4z"/>
	<path class="st19" d="M474.5,357.2c0.2,3.5,0.6,7,1.4,10.4c2.8,12.4,9.3,23.7,18.6,32.4c27.9,26.7,74.5,27.6,104.1,2
		s31.1-68,3.2-94.7s-74.5-27.6-104.1-2c-3.1,2.6-5.9,5.6-8.5,8.7c-6.8,8.2-11.4,17.9-13.5,28.3C474.7,347.2,474.3,352.2,474.5,357.2
		z M494.1,365.2c-0.7-2.9-1.2-6-1.3-9c-1.3-27.9,22.4-51.6,53.1-53.1s56.6,19.9,57.9,47.8s-22.4,51.6-53.1,53.1
		C523.9,405.2,500.1,388.9,494.1,365.2L494.1,365.2z"/>
	
		<linearGradient id="SVGID_4_" gradientUnits="userSpaceOnUse" x1="472.7905" y1="195.9906" x2="533.4205" y2="147.8907" gradientTransform="matrix(1 0 0 -1 0 490)">
		<stop  offset="3.000000e-02" style="stop-color:#FBA70B"/>
		<stop  offset="0.78" style="stop-color:#D8860E"/>
	</linearGradient>
	<polygon class="st20" points="542.5,355.6 462.3,295.1 464,277.7 546.1,348.6 	"/>
	<path class="st4" d="M475.6,342.4c6,0.7,12,1.5,18,2.4c-1.4,6.8-1.2,13.7,0.5,20.4c-6.1,0.9-12.2,1.7-18.2,2.4
		c-0.7-3.4-1.2-6.9-1.4-10.4C474.3,352.2,474.7,347.3,475.6,342.4z"/>
	<path class="st4" d="M471.1,341.9l0.5,10.2l-13,0.6l-0.5-12.1C462.1,340.9,466.5,341.4,471.1,341.9z"/>
	
		<linearGradient id="SVGID_5_" gradientUnits="userSpaceOnUse" x1="420.5333" y1="131.3177" x2="545" y2="131.3177" gradientTransform="matrix(1 0 0 -1 0 487)">
		<stop  offset="0" style="stop-color:#FBA70B"/>
		<stop  offset="0.67" style="stop-color:#E89510"/>
	</linearGradient>
	<path class="st21" d="M545,357.3c0,0-79.6,16-106.3,12.7s-18.3-16.5-10.3-26.4s114.4,10.1,114.4,10.1L545,357.3z"/>
	<path class="st4" d="M497.7,305.4l13,11.3c-2.8,2.4-5.4,5-7.6,7.9l-13.9-10.5C491.7,310.9,494.6,308,497.7,305.4z"/>
	
		<ellipse transform="matrix(0.9989 -4.693211e-02 4.693211e-02 0.9989 -15.9886 26.0797)" class="st4" cx="547.4" cy="353.5" rx="8" ry="7.3"/>
	
		<ellipse transform="matrix(0.9989 -4.693211e-02 4.693211e-02 0.9989 -15.9853 26.1269)" class="st13" cx="548.4" cy="353.5" rx="8" ry="7.3"/>
	
		<ellipse transform="matrix(0.9989 -4.693211e-02 4.693211e-02 0.9989 -16.8333 13.6475)" class="st4" cx="282.2" cy="365.3" rx="8" ry="7.3"/>
	
		<ellipse transform="matrix(0.9989 -4.693211e-02 4.693211e-02 0.9989 -16.8774 13.6276)" class="st13" cx="281.8" cy="366.2" rx="8" ry="7.3"/>
	
		<ellipse transform="matrix(0.9989 -4.693211e-02 4.693211e-02 0.9989 -16.0547 20.2813)" class="st4" cx="423.9" cy="352" rx="16" ry="14.6"/>
	
		<ellipse transform="matrix(0.9989 -4.693211e-02 4.693211e-02 0.9989 -16.0585 20.2341)" class="st13" cx="422.9" cy="352.1" rx="16" ry="14.6"/>
	<path class="st14" d="M428.2,356.2l-12,16c-1.4,1.8-4,2.2-5.9,1.1l0,0c-1.7-1-2.4-3.2-1.4-4.9c0.1-0.1,0.2-0.3,0.3-0.4l12-16
		c1.4-1.8,4-2.2,5.9-1.1l0,0c1.7,1,2.4,3.2,1.4,4.9C428.4,355.9,428.3,356,428.2,356.2z"/>
	
		<rect x="403.1" y="368" transform="matrix(0.9989 -4.693211e-02 4.693211e-02 0.9989 -17.0591 20.2117)" class="st14" width="37.6" height="10.8"/>
	
		<rect x="403.1" y="368" transform="matrix(0.9989 -4.693211e-02 4.693211e-02 0.9989 -17.0591 20.2117)" class="st4" width="37.6" height="10.8"/>
	
		<ellipse transform="matrix(0.9987 -5.007000e-02 5.007000e-02 0.9987 -20.0393 21.1006)" class="st0" cx="411.1" cy="410.5" rx="218.8" ry="31.5"/>
	<path class="st22" d="M110.5,372.7c0,0,8.2-0.3,10.7-2s12.6-3.9,13.2-1s12.3,14,3.1,14.1s-21.5-1.4-24-2.9S110.5,372.7,110.5,372.7
		z"/>
	
		<ellipse transform="matrix(0.9987 -5.007000e-02 5.007000e-02 0.9987 -18.9622 6.7333)" class="st0" cx="124.9" cy="381.8" rx="16.5" ry="9.6"/>
</g>
</svg>
