<?xml version="1.0" encoding="utf-8"?>
<!-- Generator: Adobe Illustrator 24.0.1, SVG Export Plug-In . SVG Version: 6.00 Build 0)  -->
<svg version="1.1" id="Camada_1" xmlns="http://www.w3.org/2000/svg" xmlns:xlink="http://www.w3.org/1999/xlink" x="0px" y="0px"
	 viewBox="0 0 18 16" style="enable-background:new 0 0 18 16;" xml:space="preserve">
<style type="text/css">
	.st0{fill:#19A64B;}
</style>
<path class="st0" d="M18,14c0,1.1-1,2-2.2,2H2.2C1,16,0,15.1,0,14V2c0-1.1,1-2,2.2-2h13.5C16.9,0,18,0.9,18,2V14z M14,7.5l-7.6,0
	l2.4-2.1C9,5.2,9,4.8,8.8,4.6S8.2,4.5,8,4.6l-3.4,3c-0.2,0.2-0.2,0.5,0,0.7c0,0,0,0,0,0l3.4,3c0.2,0.2,0.6,0.2,0.8,0s0.2-0.5,0-0.7
	L6.4,8.5l7.6,0c0.3,0,0.5-0.2,0.5-0.5C14.5,7.7,14.4,7.5,14,7.5z"/>
</svg>
