<?xml version="1.0" encoding="utf-8"?>
<!-- Generator: Adobe Illustrator 24.0.1, SVG Export Plug-In . SVG Version: 6.00 Build 0)  -->
<svg version="1.1" xmlns="http://www.w3.org/2000/svg" xmlns:xlink="http://www.w3.org/1999/xlink" x="0px" y="0px"
	 viewBox="0 0 82.5 82.5" style="enable-background:new 0 0 82.5 82.5;" xml:space="preserve">
<style type="text/css">
	.st0{opacity:0.25;fill:#00CC33;enable-background:new    ;}
	.st1{display:none;}
	.st2{display:inline;opacity:0.25;enable-background:new    ;}
</style>
<g id="Camada_1">
	<g id="Camada_2_1_">
		<ellipse class="st0" cx="40.6" cy="19.7" rx="15.8" ry="15.5"/>
		<path class="st0" d="M72.3,64.8c-9,7.2-23.7,13.5-31,13.5C33.8,78.3,17,71.4,10,64c-0.4-0.4,0-2.1,0-2.6
			c0.3-8,18.1-15.3,31.3-15.3c13.1,0,28.2,7,30.7,14.4C72.6,61.9,72.9,64.3,72.3,64.8z"/>
	</g>
	<g id="bc3896d4-aa68-4b30-a574-b72c1cf64d5a" class="st1">
		<title>Add_friends</title>
		<path class="st2" d="M-13.2,58.2c0,2.3-0.2,4.6-0.7,6.8c-12.7,5.4-27,5.4-39.7,0c-0.5-2.2-0.7-4.5-0.7-6.8
			c0-11.9,6.1-22,14.4-25.4c-8-3.4-11.7-12.6-8.4-20.5c3.4-8,12.6-11.7,20.5-8.4s11.7,12.6,8.4,20.5c-1.6,3.8-4.6,6.8-8.4,8.4
			C-19.2,36.2-13.2,46.3-13.2,58.2z"/>
	</g>
</g>
<g id="Camada_2">
	<g id="Camada_2_2_">
		<ellipse class="st0" cx="40.6" cy="19.7" rx="15.8" ry="15.5"/>
		<path class="st0" d="M72.3,64.8c-9,7.2-23.7,13.5-31,13.5C33.8,78.3,17,71.4,10,64c-0.4-0.4,0-2.1,0-2.6
			c0.3-8,18.1-15.3,31.3-15.3c13.1,0,28.2,7,30.7,14.4C72.6,61.9,72.9,64.3,72.3,64.8z"/>
	</g>
</g>
</svg>
