<?xml version="1.0" encoding="utf-8"?>
<!-- Generator: Adobe Illustrator 24.0.1, SVG Export Plug-In . SVG Version: 6.00 Build 0)  -->
<svg version="1.1" id="Camada_1" xmlns="http://www.w3.org/2000/svg" xmlns:xlink="http://www.w3.org/1999/xlink" x="0px" y="0px"
	 viewBox="0 0 39.9 39.9" style="enable-background:new 0 0 39.9 39.9;" xml:space="preserve">
<style type="text/css">
	.st0{opacity:0.6;}
	.st1{fill:#00CC33;}
</style>
<g class="st0">
	<path class="st1" d="M8.4,0.5L8.4,0.5C6.7,0.5,5,1.2,5,5.5l0.2,28.9c-0.1,3.9,0.1,4.8,1.8,5c0.5,0.1,12.8,0,13.3,0H32
		c1.8,0,3.2-1.4,3.2-3.2V3.7c0-1.8-1.4-3.2-3.2-3.2h0 M27.1,5.6c0.5,0.3,0.9,0.6,1.3,1c5.4,5.8,4.6,13.7-0.2,18c0,0,0,0,0,0
		c0,0,0,0,0,0c0,0-0.1,0.1-0.1,0.1c-0.5,0.5-1.1,0.9-1.7,1.2c-0.1,0.1-0.2,0.1-0.3,0.2c-1.7,1-3.7,1.5-5.8,1.5c-2.8,0-5.6-1-7.7-2.9
		c0,0-0.1-0.1-0.1-0.1c-2.5-2.2-4-5.5-4-9C8.6,6.8,18,0.2,27.1,5.6z M31.2,34h-22c-1,0-1-1.5-1-2c0-0.5-0.1-2,1-2h22
		c1.1,0,0.9,1.5,0.9,2C32.1,32.5,32.1,34,31.2,34z"/>
	<path class="st1" d="M20.3,18.9c2.8,0,5.4,1.2,7.2,3.3c1.6-1.8,2.5-4.1,2.5-6.5c0-5.4-4.3-9.8-9.6-9.8s-9.6,4.4-9.6,9.8
		c0,2.4,0.9,4.8,2.5,6.5C15,20.1,17.6,18.9,20.3,18.9z M20.4,8c2.4,0,4.3,2,4.3,4.4s-1.9,4.4-4.3,4.4s-4.3-2-4.3-4.4S18,8,20.4,8z"
		/>
	<ellipse class="st1" cx="20.4" cy="12.4" rx="2.1" ry="2.2"/>
	<path class="st1" d="M20.4,21.1c-2.2,0-4.2,0.9-5.6,2.5c0.2,0.2,0.4,0.3,0.6,0.4c0.2,0.1,0.3,0.2,0.5,0.3c0.1,0.1,0.3,0.2,0.5,0.2
		c0.2,0.1,0.4,0.2,0.5,0.2c0.2,0.1,0.4,0.2,0.6,0.2c0.1,0.1,0.3,0.1,0.5,0.1c0.1,0,0.2,0,0.3,0.1c0.2,0,0.3,0.1,0.5,0.1
		c0.5,0.1,1,0.1,1.5,0.1c0.5,0,1,0,1.6-0.1c0.1,0,0.3-0.1,0.4-0.1c0.1,0,0.3-0.1,0.4-0.1c0.1,0,0.2-0.1,0.3-0.1
		c0.1,0,0.3-0.1,0.4-0.1c0.1,0,0.2-0.1,0.4-0.1c0.1,0,0.2-0.1,0.3-0.1c0.1-0.1,0.3-0.1,0.4-0.2c0.5-0.2,0.9-0.5,1.3-0.8
		C24.5,22,22.5,21.1,20.4,21.1z"/>
</g>
</svg>
