<?xml version="1.0" encoding="utf-8"?>
<!-- Generator: Adobe Illustrator 24.0.1, SVG Export Plug-In . SVG Version: 6.00 Build 0)  -->
<svg version="1.1" xmlns="http://www.w3.org/2000/svg" xmlns:xlink="http://www.w3.org/1999/xlink" x="0px" y="0px"
	 viewBox="0 0 64.2 82.5" style="enable-background:new 0 0 64.2 82.5;" xml:space="preserve">
<style type="text/css">
	.st0{opacity:0.5;fill:#FFFFFF;stroke:#FFFFFF;stroke-width:2;stroke-miterlimit:10;}
	.st1{opacity:0.5;fill:#FFFFFF;stroke:#FFFFFF;stroke-width:4;stroke-linecap:round;stroke-linejoin:round;stroke-miterlimit:10;}
</style>
<g id="a5c16198-98a1-478b-8909-43624583dcf2">
	<path class="st0" d="M32.5,2c-9.4,0-16.2,7.2-16.2,17.1v13.7H20l0-3.4l0-10c0-0.2,0-0.3,0-0.5C20.8,11,25.2,5.8,32.5,5.4
		c7.4-0.4,11.9,5.9,12.6,13.6c0,0.1,0,0.2,0,0.2v10.2c0,0,0,3,0,3.4h3.6V19.1C48.7,9.2,41.9,2,32.5,2z"/>
</g>
<g id="Camada_2">
	<path class="st1" d="M56.2,78H8.9c-2.3,0-4.1-1.8-4.1-4.1V40c0-2.3,1.8-4.1,4.1-4.1h47.2c2.3,0,4.1,1.8,4.1,4.1v34
		C60.2,76.2,58.4,78,56.2,78z"/>
</g>
</svg>
